%FSLAX45Y45*%
G04 Gerber Fmt 4.5, Leading zero omitted, Abs format (unit mm)*
G04 Created by KiCad (PCBNEW (5.1.10)-1) date 2024-11-06 19:54:41*
%MOMM*%
%LPD*%
G01*
G04 APERTURE LIST*
%TA.AperFunction,Profile*%
%ADD10C,0.050000*%
%TD*%
%ADD11C,0.200000*%
%ADD12C,0.300000*%
G04 APERTURE END LIST*
D10*
X4660000Y-6610000D02*
G75*
G03*
X4660000Y-6610000I-160000J0D01*
G01*
X5590000Y-540000D02*
G75*
G03*
X5590000Y-540000I-160000J0D01*
G01*
X3730000Y-540000D02*
G75*
G03*
X3730000Y-540000I-160000J0D01*
G01*
X9000000Y0D02*
X9000000Y-12000000D01*
X0Y-12000000D02*
X0Y0D01*
X9000000Y-12000000D02*
X0Y-12000000D01*
X0Y0D02*
X9000000Y0D01*
D11*
D12*
X283928Y-12468214D02*
X283928Y-12168214D01*
X355357Y-12168214D01*
X398214Y-12182500D01*
X426786Y-12211071D01*
X441071Y-12239643D01*
X455357Y-12296786D01*
X455357Y-12339643D01*
X441071Y-12396786D01*
X426786Y-12425357D01*
X398214Y-12453929D01*
X355357Y-12468214D01*
X283928Y-12468214D01*
X583928Y-12468214D02*
X583928Y-12268214D01*
X583928Y-12325357D02*
X598214Y-12296786D01*
X612500Y-12282500D01*
X641071Y-12268214D01*
X669643Y-12268214D01*
X769643Y-12468214D02*
X769643Y-12268214D01*
X769643Y-12168214D02*
X755357Y-12182500D01*
X769643Y-12196786D01*
X783928Y-12182500D01*
X769643Y-12168214D01*
X769643Y-12196786D01*
X955357Y-12468214D02*
X926786Y-12453929D01*
X912500Y-12425357D01*
X912500Y-12168214D01*
X1112500Y-12468214D02*
X1083928Y-12453929D01*
X1069643Y-12425357D01*
X1069643Y-12168214D01*
X1455357Y-12468214D02*
X1455357Y-12168214D01*
X1555357Y-12382500D01*
X1655357Y-12168214D01*
X1655357Y-12468214D01*
X1926786Y-12468214D02*
X1926786Y-12311071D01*
X1912500Y-12282500D01*
X1883928Y-12268214D01*
X1826786Y-12268214D01*
X1798214Y-12282500D01*
X1926786Y-12453929D02*
X1898214Y-12468214D01*
X1826786Y-12468214D01*
X1798214Y-12453929D01*
X1783928Y-12425357D01*
X1783928Y-12396786D01*
X1798214Y-12368214D01*
X1826786Y-12353929D01*
X1898214Y-12353929D01*
X1926786Y-12339643D01*
X2069643Y-12268214D02*
X2069643Y-12568214D01*
X2069643Y-12282500D02*
X2098214Y-12268214D01*
X2155357Y-12268214D01*
X2183928Y-12282500D01*
X2198214Y-12296786D01*
X2212500Y-12325357D01*
X2212500Y-12411071D01*
X2198214Y-12439643D01*
X2183928Y-12453929D01*
X2155357Y-12468214D01*
X2098214Y-12468214D01*
X2069643Y-12453929D01*
X2341071Y-12439643D02*
X2355357Y-12453929D01*
X2341071Y-12468214D01*
X2326786Y-12453929D01*
X2341071Y-12439643D01*
X2341071Y-12468214D01*
X2341071Y-12282500D02*
X2355357Y-12296786D01*
X2341071Y-12311071D01*
X2326786Y-12296786D01*
X2341071Y-12282500D01*
X2341071Y-12311071D01*
M02*
