M48
; DRILL file {KiCad (5.1.10)-1} date 11/06/24 19:54:40
; FORMAT={-:-/ absolute / metric / decimal}
; #@! TF.CreationDate,2024-11-06T19:54:40+01:00
; #@! TF.GenerationSoftware,Kicad,Pcbnew,(5.1.10)-1
; #@! TF.FileFunction,Plated,1,2,PTH
FMAT,2
METRIC
T1C0.400
T2C0.700
T3C0.800
T4C0.820
T5C1.000
T6C1.100
T7C1.400
%
G90
G05
T1
X69.596Y-93.472
X85.852Y-55.88
X88.392Y-50.292
T2
X15.748Y-82.936
X15.748Y-84.836
X15.748Y-89.032
X15.748Y-90.932
X77.21Y-116.86
X79.11Y-116.86
T3
X70.92Y-70.862
X70.92Y-72.862
X70.92Y-74.862
X72.92Y-70.862
X72.92Y-72.862
X72.92Y-74.862
X79.46Y-10.88
X79.46Y-13.42
X79.46Y-15.96
X79.46Y-18.5
X79.46Y-21.04
X79.46Y-23.58
X79.46Y-26.12
X79.46Y-28.66
X85.16Y-68.41
X85.16Y-70.95
X87.08Y-10.88
X87.08Y-13.42
X87.08Y-15.96
X87.08Y-18.5
X87.08Y-21.04
X87.08Y-23.58
X87.08Y-26.12
X87.08Y-28.66
T4
X62.825Y-10.88
X62.825Y-13.42
X62.825Y-15.96
X62.825Y-18.5
X62.825Y-21.04
X62.825Y-23.58
X62.825Y-26.12
X62.825Y-28.66
X62.825Y-31.2
X62.825Y-33.74
X62.825Y-36.28
X62.825Y-38.82
X62.825Y-41.36
X62.825Y-43.9
X70.695Y-10.88
X70.695Y-13.42
X70.695Y-15.96
X70.695Y-18.5
X70.695Y-21.04
X70.695Y-23.58
X70.695Y-26.12
X70.695Y-28.66
X70.695Y-31.2
X70.695Y-33.74
X70.695Y-36.28
X70.695Y-38.82
X70.695Y-41.36
X70.695Y-43.9
T5
X7.91Y-36.58
X7.91Y-68.33
X7.91Y-72.644
X10.45Y-17.53
X10.45Y-20.07
X10.45Y-22.61
X10.45Y-25.15
X10.45Y-27.69
X10.45Y-36.58
X10.45Y-68.33
X10.45Y-72.644
X10.45Y-77.22
X10.45Y-97.54
X10.45Y-100.08
X10.45Y-102.62
X10.45Y-105.16
X11.72Y-84.84
X11.72Y-87.38
X12.99Y-36.58
X12.99Y-68.33
X12.99Y-72.644
X14.26Y-27.69
X15.53Y-72.644
X15.53Y-97.54
X15.53Y-100.08
X15.53Y-102.62
X15.53Y-105.16
X15.748Y-77.216
X16.8Y-115.32
X19.34Y-115.32
X20.42Y-5.8
X21.88Y-115.32
X22.96Y-5.8
X24.23Y-35.01
X24.23Y-37.51
X24.23Y-40.01
X24.42Y-115.32
X25.5Y-5.8
X27.47Y-58.25
X27.47Y-81.11
X28.04Y-5.8
X30.01Y-58.25
X30.01Y-81.11
X30.2Y-97.5
X30.2Y-100.04
X30.2Y-102.58
X30.2Y-105.12
X30.2Y-107.66
X30.2Y-110.2
X30.2Y-112.74
X30.2Y-115.28
X32.55Y-58.25
X32.55Y-81.11
X34.39Y-15.96
X34.39Y-18.5
X34.39Y-21.04
X34.39Y-23.58
X34.85Y-97.54
X34.85Y-100.08
X34.85Y-102.62
X34.85Y-105.16
X34.85Y-107.7
X34.85Y-110.24
X34.85Y-112.78
X34.85Y-115.32
X35.052Y-47.752
X35.052Y-51.689
X35.052Y-54.229
X35.09Y-58.25
X35.09Y-81.11
X37.39Y-97.54
X37.39Y-100.08
X37.39Y-102.62
X37.39Y-105.16
X37.39Y-107.7
X37.39Y-110.24
X37.39Y-112.78
X37.39Y-115.32
X37.592Y-47.752
X37.592Y-51.689
X37.592Y-54.229
X37.63Y-58.25
X37.63Y-81.11
X38.1Y-23.58
X40.132Y-47.752
X40.132Y-51.689
X40.132Y-54.229
X40.132Y-84.836
X40.132Y-87.376
X40.132Y-91.44
X40.17Y-58.25
X40.17Y-81.11
X40.74Y-35.01
X40.74Y-37.51
X40.74Y-40.01
X42.47Y-97.54
X42.47Y-100.08
X42.47Y-102.62
X42.47Y-105.16
X42.47Y-107.7
X42.47Y-110.24
X42.47Y-112.78
X42.47Y-115.32
X42.672Y-47.752
X42.672Y-51.689
X42.672Y-54.229
X42.71Y-58.25
X42.71Y-81.11
X44.55Y-15.96
X44.55Y-18.5
X44.55Y-21.04
X44.55Y-23.58
X45.212Y-47.752
X45.212Y-51.689
X45.212Y-54.229
X45.25Y-58.25
X45.25Y-81.11
X47.752Y-47.752
X47.752Y-51.689
X47.752Y-54.229
X47.79Y-58.25
X47.79Y-81.11
X48.36Y-23.58
X50.33Y-58.25
X50.33Y-81.11
X51.36Y-97.54
X51.36Y-100.08
X51.36Y-102.62
X51.36Y-105.16
X51.36Y-107.7
X51.36Y-110.24
X51.36Y-112.78
X51.36Y-115.32
X52.832Y-47.752
X52.832Y-51.816
X52.832Y-54.356
X52.832Y-84.836
X52.832Y-87.376
X52.832Y-91.44
X52.87Y-58.25
X52.87Y-81.11
X55.372Y-47.752
X55.372Y-51.816
X55.372Y-54.356
X55.372Y-84.836
X55.372Y-87.376
X55.372Y-91.44
X55.41Y-58.25
X55.41Y-81.11
X56.44Y-97.54
X56.44Y-100.08
X56.44Y-102.62
X56.44Y-105.16
X56.44Y-107.7
X56.44Y-110.24
X56.44Y-112.78
X56.44Y-115.32
X57.87Y-15.96
X57.87Y-18.5
X57.87Y-21.04
X57.87Y-23.58
X57.87Y-26.12
X57.87Y-28.66
X57.912Y-47.752
X57.912Y-51.816
X57.912Y-54.356
X57.95Y-58.25
X57.95Y-81.11
X58.98Y-97.54
X58.98Y-100.08
X58.98Y-102.62
X58.98Y-105.16
X58.98Y-107.7
X58.98Y-110.24
X58.98Y-112.78
X58.98Y-115.32
X60.49Y-58.25
X60.49Y-81.11
X63.03Y-58.25
X63.03Y-81.11
X64.06Y-97.54
X64.06Y-100.08
X64.06Y-102.62
X64.06Y-105.16
X64.06Y-107.7
X64.06Y-110.24
X64.06Y-112.78
X64.06Y-115.32
X65.532Y-84.836
X65.532Y-87.376
X65.532Y-91.44
X65.57Y-58.25
X65.57Y-81.11
X67.32Y-2.28
X67.32Y-6.78
X68.072Y-84.836
X68.072Y-87.376
X68.072Y-91.44
X68.11Y-58.25
X68.11Y-81.11
X70.22Y-113.05
X70.65Y-58.25
X70.65Y-81.11
X72.76Y-109.22
X72.76Y-113.05
X73.19Y-58.25
X73.19Y-81.11
X73.82Y-2.28
X73.82Y-6.78
X75.3Y-113.05
X75.65Y-31.2
X75.65Y-33.74
X75.692Y-47.752
X75.692Y-51.816
X75.692Y-54.356
X75.692Y-84.836
X75.692Y-87.376
X75.692Y-91.44
X75.73Y-58.25
X75.73Y-81.11
X77.84Y-113.05
X78.232Y-47.752
X78.232Y-51.816
X78.232Y-54.356
X78.232Y-84.836
X78.232Y-87.376
X78.232Y-91.44
X78.27Y-58.25
X78.27Y-81.11
X80.38Y-113.05
X80.772Y-47.752
X80.772Y-51.816
X80.772Y-54.356
X80.81Y-58.25
X80.81Y-81.11
X81.29Y-2.28
X81.29Y-6.78
X82.92Y-113.05
X82.92Y-116.86
X83.312Y-47.752
X83.312Y-51.816
X83.312Y-54.356
X83.35Y-58.25
X83.35Y-81.11
X85.46Y-113.05
X85.46Y-116.86
X85.89Y-58.25
X85.89Y-81.11
X87.79Y-2.28
X87.79Y-6.78
T6
X27.47Y-62.06
X27.47Y-77.3
X30.01Y-62.06
X30.01Y-77.3
X32.55Y-62.06
X32.55Y-77.3
X35.09Y-62.06
X35.09Y-77.3
X37.63Y-62.06
X37.63Y-77.3
X40.17Y-62.06
X40.17Y-64.6
X40.17Y-67.14
X40.17Y-69.68
X40.17Y-72.22
X40.17Y-74.76
X40.17Y-77.3
X42.71Y-62.06
X42.71Y-77.3
X45.25Y-62.06
X45.25Y-77.3
X47.79Y-62.06
X47.79Y-77.3
X50.33Y-62.06
X50.33Y-77.3
X52.87Y-62.06
X52.87Y-77.3
X55.41Y-62.06
X55.41Y-77.3
X57.95Y-62.06
X57.95Y-77.3
X60.49Y-62.06
X60.49Y-77.3
X63.03Y-62.06
X63.03Y-77.3
X65.57Y-62.06
X65.57Y-77.3
X68.11Y-62.06
X68.11Y-77.3
X69.431Y-65.111
X70.65Y-62.06
X70.65Y-77.3
X71.971Y-65.111
X73.19Y-62.06
X73.19Y-77.3
X74.511Y-65.111
X75.73Y-62.06
X75.73Y-77.3
X77.051Y-65.111
X78.27Y-62.06
X78.27Y-77.3
X79.591Y-65.111
X80.81Y-62.06
X80.81Y-77.3
X83.35Y-62.06
X83.35Y-74.76
X83.35Y-77.3
X85.89Y-62.06
X85.89Y-77.3
T7
X7.91Y-42.93
X7.91Y-47.93
X7.91Y-56.9
X7.91Y-61.9
T6
G00X31.38Y-32.71
M15
G01X32.08Y-32.71
M16
G05
G00X31.38Y-42.31
M15
G01X32.08Y-42.31
M16
G05
G00X47.89Y-32.71
M15
G01X48.59Y-32.71
M16
G05
G00X47.89Y-42.31
M15
G01X48.59Y-42.31
M16
G05
T0
M30
