%FSLAX45Y45*%
G04 Gerber Fmt 4.5, Leading zero omitted, Abs format (unit mm)*
G04 Created by KiCad (PCBNEW (5.1.10)-1) date 2024-11-06 19:54:41*
%MOMM*%
%LPD*%
G01*
G04 APERTURE LIST*
%TA.AperFunction,Profile*%
%ADD10C,0.050000*%
%TD*%
%ADD11C,0.200000*%
%ADD12C,0.300000*%
G04 APERTURE END LIST*
D10*
X4660000Y-6610000D02*
G75*
G03*
X4660000Y-6610000I-160000J0D01*
G01*
X5590000Y-540000D02*
G75*
G03*
X5590000Y-540000I-160000J0D01*
G01*
X3730000Y-540000D02*
G75*
G03*
X3730000Y-540000I-160000J0D01*
G01*
X9000000Y0D02*
X9000000Y-12000000D01*
X0Y-12000000D02*
X0Y0D01*
X9000000Y-12000000D02*
X0Y-12000000D01*
X0Y0D02*
X9000000Y0D01*
D11*
X6939600Y-9327200D02*
X6979600Y-9367200D01*
X6979600Y-9327200D02*
X6939600Y-9367200D01*
X8565200Y-5568000D02*
X8605200Y-5608000D01*
X8605200Y-5568000D02*
X8565200Y-5608000D01*
X8819200Y-5009200D02*
X8859200Y-5049200D01*
X8859200Y-5009200D02*
X8819200Y-5049200D01*
X1609800Y-8293600D02*
G75*
G03*
X1609800Y-8293600I-35000J0D01*
G01*
X1609800Y-8483600D02*
G75*
G03*
X1609800Y-8483600I-35000J0D01*
G01*
X1609800Y-8903200D02*
G75*
G03*
X1609800Y-8903200I-35000J0D01*
G01*
X1609800Y-9093200D02*
G75*
G03*
X1609800Y-9093200I-35000J0D01*
G01*
X7756000Y-11686000D02*
G75*
G03*
X7756000Y-11686000I-35000J0D01*
G01*
X7946000Y-11686000D02*
G75*
G03*
X7946000Y-11686000I-35000J0D01*
G01*
X7092000Y-7046160D02*
X7092000Y-7126160D01*
X7052000Y-7086160D02*
X7132000Y-7086160D01*
X7092000Y-7246160D02*
X7092000Y-7326160D01*
X7052000Y-7286160D02*
X7132000Y-7286160D01*
X7092000Y-7446160D02*
X7092000Y-7526160D01*
X7052000Y-7486160D02*
X7132000Y-7486160D01*
X7292000Y-7046160D02*
X7292000Y-7126160D01*
X7252000Y-7086160D02*
X7332000Y-7086160D01*
X7292000Y-7246160D02*
X7292000Y-7326160D01*
X7252000Y-7286160D02*
X7332000Y-7286160D01*
X7292000Y-7446160D02*
X7292000Y-7526160D01*
X7252000Y-7486160D02*
X7332000Y-7486160D01*
X7946000Y-1048000D02*
X7946000Y-1128000D01*
X7906000Y-1088000D02*
X7986000Y-1088000D01*
X7946000Y-1302000D02*
X7946000Y-1382000D01*
X7906000Y-1342000D02*
X7986000Y-1342000D01*
X7946000Y-1556000D02*
X7946000Y-1636000D01*
X7906000Y-1596000D02*
X7986000Y-1596000D01*
X7946000Y-1810000D02*
X7946000Y-1890000D01*
X7906000Y-1850000D02*
X7986000Y-1850000D01*
X7946000Y-2064000D02*
X7946000Y-2144000D01*
X7906000Y-2104000D02*
X7986000Y-2104000D01*
X7946000Y-2318000D02*
X7946000Y-2398000D01*
X7906000Y-2358000D02*
X7986000Y-2358000D01*
X7946000Y-2572000D02*
X7946000Y-2652000D01*
X7906000Y-2612000D02*
X7986000Y-2612000D01*
X7946000Y-2826000D02*
X7946000Y-2906000D01*
X7906000Y-2866000D02*
X7986000Y-2866000D01*
X8516000Y-6801000D02*
X8516000Y-6881000D01*
X8476000Y-6841000D02*
X8556000Y-6841000D01*
X8516000Y-7055000D02*
X8516000Y-7135000D01*
X8476000Y-7095000D02*
X8556000Y-7095000D01*
X8708000Y-1048000D02*
X8708000Y-1128000D01*
X8668000Y-1088000D02*
X8748000Y-1088000D01*
X8708000Y-1302000D02*
X8708000Y-1382000D01*
X8668000Y-1342000D02*
X8748000Y-1342000D01*
X8708000Y-1556000D02*
X8708000Y-1636000D01*
X8668000Y-1596000D02*
X8748000Y-1596000D01*
X8708000Y-1810000D02*
X8708000Y-1890000D01*
X8668000Y-1850000D02*
X8748000Y-1850000D01*
X8708000Y-2064000D02*
X8708000Y-2144000D01*
X8668000Y-2104000D02*
X8748000Y-2104000D01*
X8708000Y-2318000D02*
X8708000Y-2398000D01*
X8668000Y-2358000D02*
X8748000Y-2358000D01*
X8708000Y-2572000D02*
X8708000Y-2652000D01*
X8668000Y-2612000D02*
X8748000Y-2612000D01*
X8708000Y-2826000D02*
X8708000Y-2906000D01*
X8668000Y-2866000D02*
X8748000Y-2866000D01*
X6311492Y-1116992D02*
X6311492Y-1059008D01*
X6253508Y-1059008D01*
X6253508Y-1116992D01*
X6311492Y-1116992D01*
X6311492Y-1370992D02*
X6311492Y-1313008D01*
X6253508Y-1313008D01*
X6253508Y-1370992D01*
X6311492Y-1370992D01*
X6311492Y-1624992D02*
X6311492Y-1567008D01*
X6253508Y-1567008D01*
X6253508Y-1624992D01*
X6311492Y-1624992D01*
X6311492Y-1878992D02*
X6311492Y-1821008D01*
X6253508Y-1821008D01*
X6253508Y-1878992D01*
X6311492Y-1878992D01*
X6311492Y-2132992D02*
X6311492Y-2075008D01*
X6253508Y-2075008D01*
X6253508Y-2132992D01*
X6311492Y-2132992D01*
X6311492Y-2386992D02*
X6311492Y-2329008D01*
X6253508Y-2329008D01*
X6253508Y-2386992D01*
X6311492Y-2386992D01*
X6311492Y-2640992D02*
X6311492Y-2583008D01*
X6253508Y-2583008D01*
X6253508Y-2640992D01*
X6311492Y-2640992D01*
X6311492Y-2894992D02*
X6311492Y-2837008D01*
X6253508Y-2837008D01*
X6253508Y-2894992D01*
X6311492Y-2894992D01*
X6311492Y-3148992D02*
X6311492Y-3091008D01*
X6253508Y-3091008D01*
X6253508Y-3148992D01*
X6311492Y-3148992D01*
X6311492Y-3402992D02*
X6311492Y-3345008D01*
X6253508Y-3345008D01*
X6253508Y-3402992D01*
X6311492Y-3402992D01*
X6311492Y-3656992D02*
X6311492Y-3599008D01*
X6253508Y-3599008D01*
X6253508Y-3656992D01*
X6311492Y-3656992D01*
X6311492Y-3910992D02*
X6311492Y-3853008D01*
X6253508Y-3853008D01*
X6253508Y-3910992D01*
X6311492Y-3910992D01*
X6311492Y-4164992D02*
X6311492Y-4107008D01*
X6253508Y-4107008D01*
X6253508Y-4164992D01*
X6311492Y-4164992D01*
X6311492Y-4418992D02*
X6311492Y-4361008D01*
X6253508Y-4361008D01*
X6253508Y-4418992D01*
X6311492Y-4418992D01*
X7098492Y-1116992D02*
X7098492Y-1059008D01*
X7040508Y-1059008D01*
X7040508Y-1116992D01*
X7098492Y-1116992D01*
X7098492Y-1370992D02*
X7098492Y-1313008D01*
X7040508Y-1313008D01*
X7040508Y-1370992D01*
X7098492Y-1370992D01*
X7098492Y-1624992D02*
X7098492Y-1567008D01*
X7040508Y-1567008D01*
X7040508Y-1624992D01*
X7098492Y-1624992D01*
X7098492Y-1878992D02*
X7098492Y-1821008D01*
X7040508Y-1821008D01*
X7040508Y-1878992D01*
X7098492Y-1878992D01*
X7098492Y-2132992D02*
X7098492Y-2075008D01*
X7040508Y-2075008D01*
X7040508Y-2132992D01*
X7098492Y-2132992D01*
X7098492Y-2386992D02*
X7098492Y-2329008D01*
X7040508Y-2329008D01*
X7040508Y-2386992D01*
X7098492Y-2386992D01*
X7098492Y-2640992D02*
X7098492Y-2583008D01*
X7040508Y-2583008D01*
X7040508Y-2640992D01*
X7098492Y-2640992D01*
X7098492Y-2894992D02*
X7098492Y-2837008D01*
X7040508Y-2837008D01*
X7040508Y-2894992D01*
X7098492Y-2894992D01*
X7098492Y-3148992D02*
X7098492Y-3091008D01*
X7040508Y-3091008D01*
X7040508Y-3148992D01*
X7098492Y-3148992D01*
X7098492Y-3402992D02*
X7098492Y-3345008D01*
X7040508Y-3345008D01*
X7040508Y-3402992D01*
X7098492Y-3402992D01*
X7098492Y-3656992D02*
X7098492Y-3599008D01*
X7040508Y-3599008D01*
X7040508Y-3656992D01*
X7098492Y-3656992D01*
X7098492Y-3910992D02*
X7098492Y-3853008D01*
X7040508Y-3853008D01*
X7040508Y-3910992D01*
X7098492Y-3910992D01*
X7098492Y-4164992D02*
X7098492Y-4107008D01*
X7040508Y-4107008D01*
X7040508Y-4164992D01*
X7098492Y-4164992D01*
X7098492Y-4418992D02*
X7098492Y-4361008D01*
X7040508Y-4361008D01*
X7040508Y-4418992D01*
X7098492Y-4418992D01*
X791000Y-3708000D02*
X841000Y-3658000D01*
X791000Y-3608000D01*
X741000Y-3658000D01*
X791000Y-3708000D01*
X791000Y-6883000D02*
X841000Y-6833000D01*
X791000Y-6783000D01*
X741000Y-6833000D01*
X791000Y-6883000D01*
X791000Y-7314400D02*
X841000Y-7264400D01*
X791000Y-7214400D01*
X741000Y-7264400D01*
X791000Y-7314400D01*
X1045000Y-1803000D02*
X1095000Y-1753000D01*
X1045000Y-1703000D01*
X995000Y-1753000D01*
X1045000Y-1803000D01*
X1045000Y-2057000D02*
X1095000Y-2007000D01*
X1045000Y-1957000D01*
X995000Y-2007000D01*
X1045000Y-2057000D01*
X1045000Y-2311000D02*
X1095000Y-2261000D01*
X1045000Y-2211000D01*
X995000Y-2261000D01*
X1045000Y-2311000D01*
X1045000Y-2565000D02*
X1095000Y-2515000D01*
X1045000Y-2465000D01*
X995000Y-2515000D01*
X1045000Y-2565000D01*
X1045000Y-2819000D02*
X1095000Y-2769000D01*
X1045000Y-2719000D01*
X995000Y-2769000D01*
X1045000Y-2819000D01*
X1045000Y-3708000D02*
X1095000Y-3658000D01*
X1045000Y-3608000D01*
X995000Y-3658000D01*
X1045000Y-3708000D01*
X1045000Y-6883000D02*
X1095000Y-6833000D01*
X1045000Y-6783000D01*
X995000Y-6833000D01*
X1045000Y-6883000D01*
X1045000Y-7314400D02*
X1095000Y-7264400D01*
X1045000Y-7214400D01*
X995000Y-7264400D01*
X1045000Y-7314400D01*
X1045000Y-7772000D02*
X1095000Y-7722000D01*
X1045000Y-7672000D01*
X995000Y-7722000D01*
X1045000Y-7772000D01*
X1045000Y-9804000D02*
X1095000Y-9754000D01*
X1045000Y-9704000D01*
X995000Y-9754000D01*
X1045000Y-9804000D01*
X1045000Y-10058000D02*
X1095000Y-10008000D01*
X1045000Y-9958000D01*
X995000Y-10008000D01*
X1045000Y-10058000D01*
X1045000Y-10312000D02*
X1095000Y-10262000D01*
X1045000Y-10212000D01*
X995000Y-10262000D01*
X1045000Y-10312000D01*
X1045000Y-10566000D02*
X1095000Y-10516000D01*
X1045000Y-10466000D01*
X995000Y-10516000D01*
X1045000Y-10566000D01*
X1172000Y-8534000D02*
X1222000Y-8484000D01*
X1172000Y-8434000D01*
X1122000Y-8484000D01*
X1172000Y-8534000D01*
X1172000Y-8788000D02*
X1222000Y-8738000D01*
X1172000Y-8688000D01*
X1122000Y-8738000D01*
X1172000Y-8788000D01*
X1299000Y-3708000D02*
X1349000Y-3658000D01*
X1299000Y-3608000D01*
X1249000Y-3658000D01*
X1299000Y-3708000D01*
X1299000Y-6883000D02*
X1349000Y-6833000D01*
X1299000Y-6783000D01*
X1249000Y-6833000D01*
X1299000Y-6883000D01*
X1299000Y-7314400D02*
X1349000Y-7264400D01*
X1299000Y-7214400D01*
X1249000Y-7264400D01*
X1299000Y-7314400D01*
X1426000Y-2819000D02*
X1476000Y-2769000D01*
X1426000Y-2719000D01*
X1376000Y-2769000D01*
X1426000Y-2819000D01*
X1553000Y-7314400D02*
X1603000Y-7264400D01*
X1553000Y-7214400D01*
X1503000Y-7264400D01*
X1553000Y-7314400D01*
X1553000Y-9804000D02*
X1603000Y-9754000D01*
X1553000Y-9704000D01*
X1503000Y-9754000D01*
X1553000Y-9804000D01*
X1553000Y-10058000D02*
X1603000Y-10008000D01*
X1553000Y-9958000D01*
X1503000Y-10008000D01*
X1553000Y-10058000D01*
X1553000Y-10312000D02*
X1603000Y-10262000D01*
X1553000Y-10212000D01*
X1503000Y-10262000D01*
X1553000Y-10312000D01*
X1553000Y-10566000D02*
X1603000Y-10516000D01*
X1553000Y-10466000D01*
X1503000Y-10516000D01*
X1553000Y-10566000D01*
X1574800Y-7771600D02*
X1624800Y-7721600D01*
X1574800Y-7671600D01*
X1524800Y-7721600D01*
X1574800Y-7771600D01*
X1680000Y-11582000D02*
X1730000Y-11532000D01*
X1680000Y-11482000D01*
X1630000Y-11532000D01*
X1680000Y-11582000D01*
X1934000Y-11582000D02*
X1984000Y-11532000D01*
X1934000Y-11482000D01*
X1884000Y-11532000D01*
X1934000Y-11582000D01*
X2042000Y-630000D02*
X2092000Y-580000D01*
X2042000Y-530000D01*
X1992000Y-580000D01*
X2042000Y-630000D01*
X2188000Y-11582000D02*
X2238000Y-11532000D01*
X2188000Y-11482000D01*
X2138000Y-11532000D01*
X2188000Y-11582000D01*
X2296000Y-630000D02*
X2346000Y-580000D01*
X2296000Y-530000D01*
X2246000Y-580000D01*
X2296000Y-630000D01*
X2423000Y-3551000D02*
X2473000Y-3501000D01*
X2423000Y-3451000D01*
X2373000Y-3501000D01*
X2423000Y-3551000D01*
X2423000Y-3801000D02*
X2473000Y-3751000D01*
X2423000Y-3701000D01*
X2373000Y-3751000D01*
X2423000Y-3801000D01*
X2423000Y-4051000D02*
X2473000Y-4001000D01*
X2423000Y-3951000D01*
X2373000Y-4001000D01*
X2423000Y-4051000D01*
X2442000Y-11582000D02*
X2492000Y-11532000D01*
X2442000Y-11482000D01*
X2392000Y-11532000D01*
X2442000Y-11582000D01*
X2550000Y-630000D02*
X2600000Y-580000D01*
X2550000Y-530000D01*
X2500000Y-580000D01*
X2550000Y-630000D01*
X2747000Y-5875000D02*
X2797000Y-5825000D01*
X2747000Y-5775000D01*
X2697000Y-5825000D01*
X2747000Y-5875000D01*
X2747000Y-8161000D02*
X2797000Y-8111000D01*
X2747000Y-8061000D01*
X2697000Y-8111000D01*
X2747000Y-8161000D01*
X2804000Y-630000D02*
X2854000Y-580000D01*
X2804000Y-530000D01*
X2754000Y-580000D01*
X2804000Y-630000D01*
X3001000Y-5875000D02*
X3051000Y-5825000D01*
X3001000Y-5775000D01*
X2951000Y-5825000D01*
X3001000Y-5875000D01*
X3001000Y-8161000D02*
X3051000Y-8111000D01*
X3001000Y-8061000D01*
X2951000Y-8111000D01*
X3001000Y-8161000D01*
X3020000Y-9800000D02*
X3070000Y-9750000D01*
X3020000Y-9700000D01*
X2970000Y-9750000D01*
X3020000Y-9800000D01*
X3020000Y-10054000D02*
X3070000Y-10004000D01*
X3020000Y-9954000D01*
X2970000Y-10004000D01*
X3020000Y-10054000D01*
X3020000Y-10308000D02*
X3070000Y-10258000D01*
X3020000Y-10208000D01*
X2970000Y-10258000D01*
X3020000Y-10308000D01*
X3020000Y-10562000D02*
X3070000Y-10512000D01*
X3020000Y-10462000D01*
X2970000Y-10512000D01*
X3020000Y-10562000D01*
X3020000Y-10816000D02*
X3070000Y-10766000D01*
X3020000Y-10716000D01*
X2970000Y-10766000D01*
X3020000Y-10816000D01*
X3020000Y-11070000D02*
X3070000Y-11020000D01*
X3020000Y-10970000D01*
X2970000Y-11020000D01*
X3020000Y-11070000D01*
X3020000Y-11324000D02*
X3070000Y-11274000D01*
X3020000Y-11224000D01*
X2970000Y-11274000D01*
X3020000Y-11324000D01*
X3020000Y-11578000D02*
X3070000Y-11528000D01*
X3020000Y-11478000D01*
X2970000Y-11528000D01*
X3020000Y-11578000D01*
X3255000Y-5875000D02*
X3305000Y-5825000D01*
X3255000Y-5775000D01*
X3205000Y-5825000D01*
X3255000Y-5875000D01*
X3255000Y-8161000D02*
X3305000Y-8111000D01*
X3255000Y-8061000D01*
X3205000Y-8111000D01*
X3255000Y-8161000D01*
X3439000Y-1646000D02*
X3489000Y-1596000D01*
X3439000Y-1546000D01*
X3389000Y-1596000D01*
X3439000Y-1646000D01*
X3439000Y-1900000D02*
X3489000Y-1850000D01*
X3439000Y-1800000D01*
X3389000Y-1850000D01*
X3439000Y-1900000D01*
X3439000Y-2154000D02*
X3489000Y-2104000D01*
X3439000Y-2054000D01*
X3389000Y-2104000D01*
X3439000Y-2154000D01*
X3439000Y-2408000D02*
X3489000Y-2358000D01*
X3439000Y-2308000D01*
X3389000Y-2358000D01*
X3439000Y-2408000D01*
X3485000Y-9804000D02*
X3535000Y-9754000D01*
X3485000Y-9704000D01*
X3435000Y-9754000D01*
X3485000Y-9804000D01*
X3485000Y-10058000D02*
X3535000Y-10008000D01*
X3485000Y-9958000D01*
X3435000Y-10008000D01*
X3485000Y-10058000D01*
X3485000Y-10312000D02*
X3535000Y-10262000D01*
X3485000Y-10212000D01*
X3435000Y-10262000D01*
X3485000Y-10312000D01*
X3485000Y-10566000D02*
X3535000Y-10516000D01*
X3485000Y-10466000D01*
X3435000Y-10516000D01*
X3485000Y-10566000D01*
X3485000Y-10820000D02*
X3535000Y-10770000D01*
X3485000Y-10720000D01*
X3435000Y-10770000D01*
X3485000Y-10820000D01*
X3485000Y-11074000D02*
X3535000Y-11024000D01*
X3485000Y-10974000D01*
X3435000Y-11024000D01*
X3485000Y-11074000D01*
X3485000Y-11328000D02*
X3535000Y-11278000D01*
X3485000Y-11228000D01*
X3435000Y-11278000D01*
X3485000Y-11328000D01*
X3485000Y-11582000D02*
X3535000Y-11532000D01*
X3485000Y-11482000D01*
X3435000Y-11532000D01*
X3485000Y-11582000D01*
X3505200Y-4825200D02*
X3555200Y-4775200D01*
X3505200Y-4725200D01*
X3455200Y-4775200D01*
X3505200Y-4825200D01*
X3505200Y-5218900D02*
X3555200Y-5168900D01*
X3505200Y-5118900D01*
X3455200Y-5168900D01*
X3505200Y-5218900D01*
X3505200Y-5472900D02*
X3555200Y-5422900D01*
X3505200Y-5372900D01*
X3455200Y-5422900D01*
X3505200Y-5472900D01*
X3509000Y-5875000D02*
X3559000Y-5825000D01*
X3509000Y-5775000D01*
X3459000Y-5825000D01*
X3509000Y-5875000D01*
X3509000Y-8161000D02*
X3559000Y-8111000D01*
X3509000Y-8061000D01*
X3459000Y-8111000D01*
X3509000Y-8161000D01*
X3739000Y-9804000D02*
X3789000Y-9754000D01*
X3739000Y-9704000D01*
X3689000Y-9754000D01*
X3739000Y-9804000D01*
X3739000Y-10058000D02*
X3789000Y-10008000D01*
X3739000Y-9958000D01*
X3689000Y-10008000D01*
X3739000Y-10058000D01*
X3739000Y-10312000D02*
X3789000Y-10262000D01*
X3739000Y-10212000D01*
X3689000Y-10262000D01*
X3739000Y-10312000D01*
X3739000Y-10566000D02*
X3789000Y-10516000D01*
X3739000Y-10466000D01*
X3689000Y-10516000D01*
X3739000Y-10566000D01*
X3739000Y-10820000D02*
X3789000Y-10770000D01*
X3739000Y-10720000D01*
X3689000Y-10770000D01*
X3739000Y-10820000D01*
X3739000Y-11074000D02*
X3789000Y-11024000D01*
X3739000Y-10974000D01*
X3689000Y-11024000D01*
X3739000Y-11074000D01*
X3739000Y-11328000D02*
X3789000Y-11278000D01*
X3739000Y-11228000D01*
X3689000Y-11278000D01*
X3739000Y-11328000D01*
X3739000Y-11582000D02*
X3789000Y-11532000D01*
X3739000Y-11482000D01*
X3689000Y-11532000D01*
X3739000Y-11582000D01*
X3759200Y-4825200D02*
X3809200Y-4775200D01*
X3759200Y-4725200D01*
X3709200Y-4775200D01*
X3759200Y-4825200D01*
X3759200Y-5218900D02*
X3809200Y-5168900D01*
X3759200Y-5118900D01*
X3709200Y-5168900D01*
X3759200Y-5218900D01*
X3759200Y-5472900D02*
X3809200Y-5422900D01*
X3759200Y-5372900D01*
X3709200Y-5422900D01*
X3759200Y-5472900D01*
X3763000Y-5875000D02*
X3813000Y-5825000D01*
X3763000Y-5775000D01*
X3713000Y-5825000D01*
X3763000Y-5875000D01*
X3763000Y-8161000D02*
X3813000Y-8111000D01*
X3763000Y-8061000D01*
X3713000Y-8111000D01*
X3763000Y-8161000D01*
X3810000Y-2408000D02*
X3860000Y-2358000D01*
X3810000Y-2308000D01*
X3760000Y-2358000D01*
X3810000Y-2408000D01*
X4013200Y-4825200D02*
X4063200Y-4775200D01*
X4013200Y-4725200D01*
X3963200Y-4775200D01*
X4013200Y-4825200D01*
X4013200Y-5218900D02*
X4063200Y-5168900D01*
X4013200Y-5118900D01*
X3963200Y-5168900D01*
X4013200Y-5218900D01*
X4013200Y-5472900D02*
X4063200Y-5422900D01*
X4013200Y-5372900D01*
X3963200Y-5422900D01*
X4013200Y-5472900D01*
X4013200Y-8533600D02*
X4063200Y-8483600D01*
X4013200Y-8433600D01*
X3963200Y-8483600D01*
X4013200Y-8533600D01*
X4013200Y-8787600D02*
X4063200Y-8737600D01*
X4013200Y-8687600D01*
X3963200Y-8737600D01*
X4013200Y-8787600D01*
X4013200Y-9194000D02*
X4063200Y-9144000D01*
X4013200Y-9094000D01*
X3963200Y-9144000D01*
X4013200Y-9194000D01*
X4017000Y-5875000D02*
X4067000Y-5825000D01*
X4017000Y-5775000D01*
X3967000Y-5825000D01*
X4017000Y-5875000D01*
X4017000Y-8161000D02*
X4067000Y-8111000D01*
X4017000Y-8061000D01*
X3967000Y-8111000D01*
X4017000Y-8161000D01*
X4074000Y-3551000D02*
X4124000Y-3501000D01*
X4074000Y-3451000D01*
X4024000Y-3501000D01*
X4074000Y-3551000D01*
X4074000Y-3801000D02*
X4124000Y-3751000D01*
X4074000Y-3701000D01*
X4024000Y-3751000D01*
X4074000Y-3801000D01*
X4074000Y-4051000D02*
X4124000Y-4001000D01*
X4074000Y-3951000D01*
X4024000Y-4001000D01*
X4074000Y-4051000D01*
X4247000Y-9804000D02*
X4297000Y-9754000D01*
X4247000Y-9704000D01*
X4197000Y-9754000D01*
X4247000Y-9804000D01*
X4247000Y-10058000D02*
X4297000Y-10008000D01*
X4247000Y-9958000D01*
X4197000Y-10008000D01*
X4247000Y-10058000D01*
X4247000Y-10312000D02*
X4297000Y-10262000D01*
X4247000Y-10212000D01*
X4197000Y-10262000D01*
X4247000Y-10312000D01*
X4247000Y-10566000D02*
X4297000Y-10516000D01*
X4247000Y-10466000D01*
X4197000Y-10516000D01*
X4247000Y-10566000D01*
X4247000Y-10820000D02*
X4297000Y-10770000D01*
X4247000Y-10720000D01*
X4197000Y-10770000D01*
X4247000Y-10820000D01*
X4247000Y-11074000D02*
X4297000Y-11024000D01*
X4247000Y-10974000D01*
X4197000Y-11024000D01*
X4247000Y-11074000D01*
X4247000Y-11328000D02*
X4297000Y-11278000D01*
X4247000Y-11228000D01*
X4197000Y-11278000D01*
X4247000Y-11328000D01*
X4247000Y-11582000D02*
X4297000Y-11532000D01*
X4247000Y-11482000D01*
X4197000Y-11532000D01*
X4247000Y-11582000D01*
X4267200Y-4825200D02*
X4317200Y-4775200D01*
X4267200Y-4725200D01*
X4217200Y-4775200D01*
X4267200Y-4825200D01*
X4267200Y-5218900D02*
X4317200Y-5168900D01*
X4267200Y-5118900D01*
X4217200Y-5168900D01*
X4267200Y-5218900D01*
X4267200Y-5472900D02*
X4317200Y-5422900D01*
X4267200Y-5372900D01*
X4217200Y-5422900D01*
X4267200Y-5472900D01*
X4271000Y-5875000D02*
X4321000Y-5825000D01*
X4271000Y-5775000D01*
X4221000Y-5825000D01*
X4271000Y-5875000D01*
X4271000Y-8161000D02*
X4321000Y-8111000D01*
X4271000Y-8061000D01*
X4221000Y-8111000D01*
X4271000Y-8161000D01*
X4455000Y-1646000D02*
X4505000Y-1596000D01*
X4455000Y-1546000D01*
X4405000Y-1596000D01*
X4455000Y-1646000D01*
X4455000Y-1900000D02*
X4505000Y-1850000D01*
X4455000Y-1800000D01*
X4405000Y-1850000D01*
X4455000Y-1900000D01*
X4455000Y-2154000D02*
X4505000Y-2104000D01*
X4455000Y-2054000D01*
X4405000Y-2104000D01*
X4455000Y-2154000D01*
X4455000Y-2408000D02*
X4505000Y-2358000D01*
X4455000Y-2308000D01*
X4405000Y-2358000D01*
X4455000Y-2408000D01*
X4521200Y-4825200D02*
X4571200Y-4775200D01*
X4521200Y-4725200D01*
X4471200Y-4775200D01*
X4521200Y-4825200D01*
X4521200Y-5218900D02*
X4571200Y-5168900D01*
X4521200Y-5118900D01*
X4471200Y-5168900D01*
X4521200Y-5218900D01*
X4521200Y-5472900D02*
X4571200Y-5422900D01*
X4521200Y-5372900D01*
X4471200Y-5422900D01*
X4521200Y-5472900D01*
X4525000Y-5875000D02*
X4575000Y-5825000D01*
X4525000Y-5775000D01*
X4475000Y-5825000D01*
X4525000Y-5875000D01*
X4525000Y-8161000D02*
X4575000Y-8111000D01*
X4525000Y-8061000D01*
X4475000Y-8111000D01*
X4525000Y-8161000D01*
X4775200Y-4825200D02*
X4825200Y-4775200D01*
X4775200Y-4725200D01*
X4725200Y-4775200D01*
X4775200Y-4825200D01*
X4775200Y-5218900D02*
X4825200Y-5168900D01*
X4775200Y-5118900D01*
X4725200Y-5168900D01*
X4775200Y-5218900D01*
X4775200Y-5472900D02*
X4825200Y-5422900D01*
X4775200Y-5372900D01*
X4725200Y-5422900D01*
X4775200Y-5472900D01*
X4779000Y-5875000D02*
X4829000Y-5825000D01*
X4779000Y-5775000D01*
X4729000Y-5825000D01*
X4779000Y-5875000D01*
X4779000Y-8161000D02*
X4829000Y-8111000D01*
X4779000Y-8061000D01*
X4729000Y-8111000D01*
X4779000Y-8161000D01*
X4836000Y-2408000D02*
X4886000Y-2358000D01*
X4836000Y-2308000D01*
X4786000Y-2358000D01*
X4836000Y-2408000D01*
X5033000Y-5875000D02*
X5083000Y-5825000D01*
X5033000Y-5775000D01*
X4983000Y-5825000D01*
X5033000Y-5875000D01*
X5033000Y-8161000D02*
X5083000Y-8111000D01*
X5033000Y-8061000D01*
X4983000Y-8111000D01*
X5033000Y-8161000D01*
X5136000Y-9804000D02*
X5186000Y-9754000D01*
X5136000Y-9704000D01*
X5086000Y-9754000D01*
X5136000Y-9804000D01*
X5136000Y-10058000D02*
X5186000Y-10008000D01*
X5136000Y-9958000D01*
X5086000Y-10008000D01*
X5136000Y-10058000D01*
X5136000Y-10312000D02*
X5186000Y-10262000D01*
X5136000Y-10212000D01*
X5086000Y-10262000D01*
X5136000Y-10312000D01*
X5136000Y-10566000D02*
X5186000Y-10516000D01*
X5136000Y-10466000D01*
X5086000Y-10516000D01*
X5136000Y-10566000D01*
X5136000Y-10820000D02*
X5186000Y-10770000D01*
X5136000Y-10720000D01*
X5086000Y-10770000D01*
X5136000Y-10820000D01*
X5136000Y-11074000D02*
X5186000Y-11024000D01*
X5136000Y-10974000D01*
X5086000Y-11024000D01*
X5136000Y-11074000D01*
X5136000Y-11328000D02*
X5186000Y-11278000D01*
X5136000Y-11228000D01*
X5086000Y-11278000D01*
X5136000Y-11328000D01*
X5136000Y-11582000D02*
X5186000Y-11532000D01*
X5136000Y-11482000D01*
X5086000Y-11532000D01*
X5136000Y-11582000D01*
X5283200Y-4825200D02*
X5333200Y-4775200D01*
X5283200Y-4725200D01*
X5233200Y-4775200D01*
X5283200Y-4825200D01*
X5283200Y-5231600D02*
X5333200Y-5181600D01*
X5283200Y-5131600D01*
X5233200Y-5181600D01*
X5283200Y-5231600D01*
X5283200Y-5485600D02*
X5333200Y-5435600D01*
X5283200Y-5385600D01*
X5233200Y-5435600D01*
X5283200Y-5485600D01*
X5283200Y-8533600D02*
X5333200Y-8483600D01*
X5283200Y-8433600D01*
X5233200Y-8483600D01*
X5283200Y-8533600D01*
X5283200Y-8787600D02*
X5333200Y-8737600D01*
X5283200Y-8687600D01*
X5233200Y-8737600D01*
X5283200Y-8787600D01*
X5283200Y-9194000D02*
X5333200Y-9144000D01*
X5283200Y-9094000D01*
X5233200Y-9144000D01*
X5283200Y-9194000D01*
X5287000Y-5875000D02*
X5337000Y-5825000D01*
X5287000Y-5775000D01*
X5237000Y-5825000D01*
X5287000Y-5875000D01*
X5287000Y-8161000D02*
X5337000Y-8111000D01*
X5287000Y-8061000D01*
X5237000Y-8111000D01*
X5287000Y-8161000D01*
X5537200Y-4825200D02*
X5587200Y-4775200D01*
X5537200Y-4725200D01*
X5487200Y-4775200D01*
X5537200Y-4825200D01*
X5537200Y-5231600D02*
X5587200Y-5181600D01*
X5537200Y-5131600D01*
X5487200Y-5181600D01*
X5537200Y-5231600D01*
X5537200Y-5485600D02*
X5587200Y-5435600D01*
X5537200Y-5385600D01*
X5487200Y-5435600D01*
X5537200Y-5485600D01*
X5537200Y-8533600D02*
X5587200Y-8483600D01*
X5537200Y-8433600D01*
X5487200Y-8483600D01*
X5537200Y-8533600D01*
X5537200Y-8787600D02*
X5587200Y-8737600D01*
X5537200Y-8687600D01*
X5487200Y-8737600D01*
X5537200Y-8787600D01*
X5537200Y-9194000D02*
X5587200Y-9144000D01*
X5537200Y-9094000D01*
X5487200Y-9144000D01*
X5537200Y-9194000D01*
X5541000Y-5875000D02*
X5591000Y-5825000D01*
X5541000Y-5775000D01*
X5491000Y-5825000D01*
X5541000Y-5875000D01*
X5541000Y-8161000D02*
X5591000Y-8111000D01*
X5541000Y-8061000D01*
X5491000Y-8111000D01*
X5541000Y-8161000D01*
X5644000Y-9804000D02*
X5694000Y-9754000D01*
X5644000Y-9704000D01*
X5594000Y-9754000D01*
X5644000Y-9804000D01*
X5644000Y-10058000D02*
X5694000Y-10008000D01*
X5644000Y-9958000D01*
X5594000Y-10008000D01*
X5644000Y-10058000D01*
X5644000Y-10312000D02*
X5694000Y-10262000D01*
X5644000Y-10212000D01*
X5594000Y-10262000D01*
X5644000Y-10312000D01*
X5644000Y-10566000D02*
X5694000Y-10516000D01*
X5644000Y-10466000D01*
X5594000Y-10516000D01*
X5644000Y-10566000D01*
X5644000Y-10820000D02*
X5694000Y-10770000D01*
X5644000Y-10720000D01*
X5594000Y-10770000D01*
X5644000Y-10820000D01*
X5644000Y-11074000D02*
X5694000Y-11024000D01*
X5644000Y-10974000D01*
X5594000Y-11024000D01*
X5644000Y-11074000D01*
X5644000Y-11328000D02*
X5694000Y-11278000D01*
X5644000Y-11228000D01*
X5594000Y-11278000D01*
X5644000Y-11328000D01*
X5644000Y-11582000D02*
X5694000Y-11532000D01*
X5644000Y-11482000D01*
X5594000Y-11532000D01*
X5644000Y-11582000D01*
X5787000Y-1646000D02*
X5837000Y-1596000D01*
X5787000Y-1546000D01*
X5737000Y-1596000D01*
X5787000Y-1646000D01*
X5787000Y-1900000D02*
X5837000Y-1850000D01*
X5787000Y-1800000D01*
X5737000Y-1850000D01*
X5787000Y-1900000D01*
X5787000Y-2154000D02*
X5837000Y-2104000D01*
X5787000Y-2054000D01*
X5737000Y-2104000D01*
X5787000Y-2154000D01*
X5787000Y-2408000D02*
X5837000Y-2358000D01*
X5787000Y-2308000D01*
X5737000Y-2358000D01*
X5787000Y-2408000D01*
X5787000Y-2662000D02*
X5837000Y-2612000D01*
X5787000Y-2562000D01*
X5737000Y-2612000D01*
X5787000Y-2662000D01*
X5787000Y-2916000D02*
X5837000Y-2866000D01*
X5787000Y-2816000D01*
X5737000Y-2866000D01*
X5787000Y-2916000D01*
X5791200Y-4825200D02*
X5841200Y-4775200D01*
X5791200Y-4725200D01*
X5741200Y-4775200D01*
X5791200Y-4825200D01*
X5791200Y-5231600D02*
X5841200Y-5181600D01*
X5791200Y-5131600D01*
X5741200Y-5181600D01*
X5791200Y-5231600D01*
X5791200Y-5485600D02*
X5841200Y-5435600D01*
X5791200Y-5385600D01*
X5741200Y-5435600D01*
X5791200Y-5485600D01*
X5795000Y-5875000D02*
X5845000Y-5825000D01*
X5795000Y-5775000D01*
X5745000Y-5825000D01*
X5795000Y-5875000D01*
X5795000Y-8161000D02*
X5845000Y-8111000D01*
X5795000Y-8061000D01*
X5745000Y-8111000D01*
X5795000Y-8161000D01*
X5898000Y-9804000D02*
X5948000Y-9754000D01*
X5898000Y-9704000D01*
X5848000Y-9754000D01*
X5898000Y-9804000D01*
X5898000Y-10058000D02*
X5948000Y-10008000D01*
X5898000Y-9958000D01*
X5848000Y-10008000D01*
X5898000Y-10058000D01*
X5898000Y-10312000D02*
X5948000Y-10262000D01*
X5898000Y-10212000D01*
X5848000Y-10262000D01*
X5898000Y-10312000D01*
X5898000Y-10566000D02*
X5948000Y-10516000D01*
X5898000Y-10466000D01*
X5848000Y-10516000D01*
X5898000Y-10566000D01*
X5898000Y-10820000D02*
X5948000Y-10770000D01*
X5898000Y-10720000D01*
X5848000Y-10770000D01*
X5898000Y-10820000D01*
X5898000Y-11074000D02*
X5948000Y-11024000D01*
X5898000Y-10974000D01*
X5848000Y-11024000D01*
X5898000Y-11074000D01*
X5898000Y-11328000D02*
X5948000Y-11278000D01*
X5898000Y-11228000D01*
X5848000Y-11278000D01*
X5898000Y-11328000D01*
X5898000Y-11582000D02*
X5948000Y-11532000D01*
X5898000Y-11482000D01*
X5848000Y-11532000D01*
X5898000Y-11582000D01*
X6049000Y-5875000D02*
X6099000Y-5825000D01*
X6049000Y-5775000D01*
X5999000Y-5825000D01*
X6049000Y-5875000D01*
X6049000Y-8161000D02*
X6099000Y-8111000D01*
X6049000Y-8061000D01*
X5999000Y-8111000D01*
X6049000Y-8161000D01*
X6303000Y-5875000D02*
X6353000Y-5825000D01*
X6303000Y-5775000D01*
X6253000Y-5825000D01*
X6303000Y-5875000D01*
X6303000Y-8161000D02*
X6353000Y-8111000D01*
X6303000Y-8061000D01*
X6253000Y-8111000D01*
X6303000Y-8161000D01*
X6406000Y-9804000D02*
X6456000Y-9754000D01*
X6406000Y-9704000D01*
X6356000Y-9754000D01*
X6406000Y-9804000D01*
X6406000Y-10058000D02*
X6456000Y-10008000D01*
X6406000Y-9958000D01*
X6356000Y-10008000D01*
X6406000Y-10058000D01*
X6406000Y-10312000D02*
X6456000Y-10262000D01*
X6406000Y-10212000D01*
X6356000Y-10262000D01*
X6406000Y-10312000D01*
X6406000Y-10566000D02*
X6456000Y-10516000D01*
X6406000Y-10466000D01*
X6356000Y-10516000D01*
X6406000Y-10566000D01*
X6406000Y-10820000D02*
X6456000Y-10770000D01*
X6406000Y-10720000D01*
X6356000Y-10770000D01*
X6406000Y-10820000D01*
X6406000Y-11074000D02*
X6456000Y-11024000D01*
X6406000Y-10974000D01*
X6356000Y-11024000D01*
X6406000Y-11074000D01*
X6406000Y-11328000D02*
X6456000Y-11278000D01*
X6406000Y-11228000D01*
X6356000Y-11278000D01*
X6406000Y-11328000D01*
X6406000Y-11582000D02*
X6456000Y-11532000D01*
X6406000Y-11482000D01*
X6356000Y-11532000D01*
X6406000Y-11582000D01*
X6553200Y-8533600D02*
X6603200Y-8483600D01*
X6553200Y-8433600D01*
X6503200Y-8483600D01*
X6553200Y-8533600D01*
X6553200Y-8787600D02*
X6603200Y-8737600D01*
X6553200Y-8687600D01*
X6503200Y-8737600D01*
X6553200Y-8787600D01*
X6553200Y-9194000D02*
X6603200Y-9144000D01*
X6553200Y-9094000D01*
X6503200Y-9144000D01*
X6553200Y-9194000D01*
X6557000Y-5875000D02*
X6607000Y-5825000D01*
X6557000Y-5775000D01*
X6507000Y-5825000D01*
X6557000Y-5875000D01*
X6557000Y-8161000D02*
X6607000Y-8111000D01*
X6557000Y-8061000D01*
X6507000Y-8111000D01*
X6557000Y-8161000D01*
X6732000Y-278000D02*
X6782000Y-228000D01*
X6732000Y-178000D01*
X6682000Y-228000D01*
X6732000Y-278000D01*
X6732000Y-728000D02*
X6782000Y-678000D01*
X6732000Y-628000D01*
X6682000Y-678000D01*
X6732000Y-728000D01*
X6807200Y-8533600D02*
X6857200Y-8483600D01*
X6807200Y-8433600D01*
X6757200Y-8483600D01*
X6807200Y-8533600D01*
X6807200Y-8787600D02*
X6857200Y-8737600D01*
X6807200Y-8687600D01*
X6757200Y-8737600D01*
X6807200Y-8787600D01*
X6807200Y-9194000D02*
X6857200Y-9144000D01*
X6807200Y-9094000D01*
X6757200Y-9144000D01*
X6807200Y-9194000D01*
X6811000Y-5875000D02*
X6861000Y-5825000D01*
X6811000Y-5775000D01*
X6761000Y-5825000D01*
X6811000Y-5875000D01*
X6811000Y-8161000D02*
X6861000Y-8111000D01*
X6811000Y-8061000D01*
X6761000Y-8111000D01*
X6811000Y-8161000D01*
X7022000Y-11355000D02*
X7072000Y-11305000D01*
X7022000Y-11255000D01*
X6972000Y-11305000D01*
X7022000Y-11355000D01*
X7065000Y-5875000D02*
X7115000Y-5825000D01*
X7065000Y-5775000D01*
X7015000Y-5825000D01*
X7065000Y-5875000D01*
X7065000Y-8161000D02*
X7115000Y-8111000D01*
X7065000Y-8061000D01*
X7015000Y-8111000D01*
X7065000Y-8161000D01*
X7276000Y-10972000D02*
X7326000Y-10922000D01*
X7276000Y-10872000D01*
X7226000Y-10922000D01*
X7276000Y-10972000D01*
X7276000Y-11355000D02*
X7326000Y-11305000D01*
X7276000Y-11255000D01*
X7226000Y-11305000D01*
X7276000Y-11355000D01*
X7319000Y-5875000D02*
X7369000Y-5825000D01*
X7319000Y-5775000D01*
X7269000Y-5825000D01*
X7319000Y-5875000D01*
X7319000Y-8161000D02*
X7369000Y-8111000D01*
X7319000Y-8061000D01*
X7269000Y-8111000D01*
X7319000Y-8161000D01*
X7382000Y-278000D02*
X7432000Y-228000D01*
X7382000Y-178000D01*
X7332000Y-228000D01*
X7382000Y-278000D01*
X7382000Y-728000D02*
X7432000Y-678000D01*
X7382000Y-628000D01*
X7332000Y-678000D01*
X7382000Y-728000D01*
X7530000Y-11355000D02*
X7580000Y-11305000D01*
X7530000Y-11255000D01*
X7480000Y-11305000D01*
X7530000Y-11355000D01*
X7565000Y-3170000D02*
X7615000Y-3120000D01*
X7565000Y-3070000D01*
X7515000Y-3120000D01*
X7565000Y-3170000D01*
X7565000Y-3424000D02*
X7615000Y-3374000D01*
X7565000Y-3324000D01*
X7515000Y-3374000D01*
X7565000Y-3424000D01*
X7569200Y-4825200D02*
X7619200Y-4775200D01*
X7569200Y-4725200D01*
X7519200Y-4775200D01*
X7569200Y-4825200D01*
X7569200Y-5231600D02*
X7619200Y-5181600D01*
X7569200Y-5131600D01*
X7519200Y-5181600D01*
X7569200Y-5231600D01*
X7569200Y-5485600D02*
X7619200Y-5435600D01*
X7569200Y-5385600D01*
X7519200Y-5435600D01*
X7569200Y-5485600D01*
X7569200Y-8533600D02*
X7619200Y-8483600D01*
X7569200Y-8433600D01*
X7519200Y-8483600D01*
X7569200Y-8533600D01*
X7569200Y-8787600D02*
X7619200Y-8737600D01*
X7569200Y-8687600D01*
X7519200Y-8737600D01*
X7569200Y-8787600D01*
X7569200Y-9194000D02*
X7619200Y-9144000D01*
X7569200Y-9094000D01*
X7519200Y-9144000D01*
X7569200Y-9194000D01*
X7573000Y-5875000D02*
X7623000Y-5825000D01*
X7573000Y-5775000D01*
X7523000Y-5825000D01*
X7573000Y-5875000D01*
X7573000Y-8161000D02*
X7623000Y-8111000D01*
X7573000Y-8061000D01*
X7523000Y-8111000D01*
X7573000Y-8161000D01*
X7784000Y-11355000D02*
X7834000Y-11305000D01*
X7784000Y-11255000D01*
X7734000Y-11305000D01*
X7784000Y-11355000D01*
X7823200Y-4825200D02*
X7873200Y-4775200D01*
X7823200Y-4725200D01*
X7773200Y-4775200D01*
X7823200Y-4825200D01*
X7823200Y-5231600D02*
X7873200Y-5181600D01*
X7823200Y-5131600D01*
X7773200Y-5181600D01*
X7823200Y-5231600D01*
X7823200Y-5485600D02*
X7873200Y-5435600D01*
X7823200Y-5385600D01*
X7773200Y-5435600D01*
X7823200Y-5485600D01*
X7823200Y-8533600D02*
X7873200Y-8483600D01*
X7823200Y-8433600D01*
X7773200Y-8483600D01*
X7823200Y-8533600D01*
X7823200Y-8787600D02*
X7873200Y-8737600D01*
X7823200Y-8687600D01*
X7773200Y-8737600D01*
X7823200Y-8787600D01*
X7823200Y-9194000D02*
X7873200Y-9144000D01*
X7823200Y-9094000D01*
X7773200Y-9144000D01*
X7823200Y-9194000D01*
X7827000Y-5875000D02*
X7877000Y-5825000D01*
X7827000Y-5775000D01*
X7777000Y-5825000D01*
X7827000Y-5875000D01*
X7827000Y-8161000D02*
X7877000Y-8111000D01*
X7827000Y-8061000D01*
X7777000Y-8111000D01*
X7827000Y-8161000D01*
X8038000Y-11355000D02*
X8088000Y-11305000D01*
X8038000Y-11255000D01*
X7988000Y-11305000D01*
X8038000Y-11355000D01*
X8077200Y-4825200D02*
X8127200Y-4775200D01*
X8077200Y-4725200D01*
X8027200Y-4775200D01*
X8077200Y-4825200D01*
X8077200Y-5231600D02*
X8127200Y-5181600D01*
X8077200Y-5131600D01*
X8027200Y-5181600D01*
X8077200Y-5231600D01*
X8077200Y-5485600D02*
X8127200Y-5435600D01*
X8077200Y-5385600D01*
X8027200Y-5435600D01*
X8077200Y-5485600D01*
X8081000Y-5875000D02*
X8131000Y-5825000D01*
X8081000Y-5775000D01*
X8031000Y-5825000D01*
X8081000Y-5875000D01*
X8081000Y-8161000D02*
X8131000Y-8111000D01*
X8081000Y-8061000D01*
X8031000Y-8111000D01*
X8081000Y-8161000D01*
X8129000Y-278000D02*
X8179000Y-228000D01*
X8129000Y-178000D01*
X8079000Y-228000D01*
X8129000Y-278000D01*
X8129000Y-728000D02*
X8179000Y-678000D01*
X8129000Y-628000D01*
X8079000Y-678000D01*
X8129000Y-728000D01*
X8292000Y-11355000D02*
X8342000Y-11305000D01*
X8292000Y-11255000D01*
X8242000Y-11305000D01*
X8292000Y-11355000D01*
X8292000Y-11736000D02*
X8342000Y-11686000D01*
X8292000Y-11636000D01*
X8242000Y-11686000D01*
X8292000Y-11736000D01*
X8331200Y-4825200D02*
X8381200Y-4775200D01*
X8331200Y-4725200D01*
X8281200Y-4775200D01*
X8331200Y-4825200D01*
X8331200Y-5231600D02*
X8381200Y-5181600D01*
X8331200Y-5131600D01*
X8281200Y-5181600D01*
X8331200Y-5231600D01*
X8331200Y-5485600D02*
X8381200Y-5435600D01*
X8331200Y-5385600D01*
X8281200Y-5435600D01*
X8331200Y-5485600D01*
X8335000Y-5875000D02*
X8385000Y-5825000D01*
X8335000Y-5775000D01*
X8285000Y-5825000D01*
X8335000Y-5875000D01*
X8335000Y-8161000D02*
X8385000Y-8111000D01*
X8335000Y-8061000D01*
X8285000Y-8111000D01*
X8335000Y-8161000D01*
X8546000Y-11355000D02*
X8596000Y-11305000D01*
X8546000Y-11255000D01*
X8496000Y-11305000D01*
X8546000Y-11355000D01*
X8546000Y-11736000D02*
X8596000Y-11686000D01*
X8546000Y-11636000D01*
X8496000Y-11686000D01*
X8546000Y-11736000D01*
X8589000Y-5875000D02*
X8639000Y-5825000D01*
X8589000Y-5775000D01*
X8539000Y-5825000D01*
X8589000Y-5875000D01*
X8589000Y-8161000D02*
X8639000Y-8111000D01*
X8589000Y-8061000D01*
X8539000Y-8111000D01*
X8589000Y-8161000D01*
X8779000Y-278000D02*
X8829000Y-228000D01*
X8779000Y-178000D01*
X8729000Y-228000D01*
X8779000Y-278000D01*
X8779000Y-728000D02*
X8829000Y-678000D01*
X8779000Y-628000D01*
X8729000Y-678000D01*
X8779000Y-728000D01*
X2692000Y-6151000D02*
X2802000Y-6261000D01*
X2802000Y-6151000D02*
X2692000Y-6261000D01*
X2802000Y-6206000D02*
G75*
G03*
X2802000Y-6206000I-55000J0D01*
G01*
X2692000Y-7675000D02*
X2802000Y-7785000D01*
X2802000Y-7675000D02*
X2692000Y-7785000D01*
X2802000Y-7730000D02*
G75*
G03*
X2802000Y-7730000I-55000J0D01*
G01*
X2946000Y-6151000D02*
X3056000Y-6261000D01*
X3056000Y-6151000D02*
X2946000Y-6261000D01*
X3056000Y-6206000D02*
G75*
G03*
X3056000Y-6206000I-55000J0D01*
G01*
X2946000Y-7675000D02*
X3056000Y-7785000D01*
X3056000Y-7675000D02*
X2946000Y-7785000D01*
X3056000Y-7730000D02*
G75*
G03*
X3056000Y-7730000I-55000J0D01*
G01*
X3118000Y-3216000D02*
X3228000Y-3326000D01*
X3228000Y-3216000D02*
X3118000Y-3326000D01*
X3228000Y-3271000D02*
G75*
G03*
X3228000Y-3271000I-55000J0D01*
G01*
X3138000Y-3316000D02*
X3208000Y-3316000D01*
X3138000Y-3226000D02*
X3208000Y-3226000D01*
X3208000Y-3316000D02*
G75*
G03*
X3208000Y-3226000I0J45000D01*
G01*
X3138000Y-3226000D02*
G75*
G03*
X3138000Y-3316000I0J-45000D01*
G01*
X3118000Y-4176000D02*
X3228000Y-4286000D01*
X3228000Y-4176000D02*
X3118000Y-4286000D01*
X3228000Y-4231000D02*
G75*
G03*
X3228000Y-4231000I-55000J0D01*
G01*
X3138000Y-4276000D02*
X3208000Y-4276000D01*
X3138000Y-4186000D02*
X3208000Y-4186000D01*
X3208000Y-4276000D02*
G75*
G03*
X3208000Y-4186000I0J45000D01*
G01*
X3138000Y-4186000D02*
G75*
G03*
X3138000Y-4276000I0J-45000D01*
G01*
X3200000Y-6151000D02*
X3310000Y-6261000D01*
X3310000Y-6151000D02*
X3200000Y-6261000D01*
X3310000Y-6206000D02*
G75*
G03*
X3310000Y-6206000I-55000J0D01*
G01*
X3200000Y-7675000D02*
X3310000Y-7785000D01*
X3310000Y-7675000D02*
X3200000Y-7785000D01*
X3310000Y-7730000D02*
G75*
G03*
X3310000Y-7730000I-55000J0D01*
G01*
X3454000Y-6151000D02*
X3564000Y-6261000D01*
X3564000Y-6151000D02*
X3454000Y-6261000D01*
X3564000Y-6206000D02*
G75*
G03*
X3564000Y-6206000I-55000J0D01*
G01*
X3454000Y-7675000D02*
X3564000Y-7785000D01*
X3564000Y-7675000D02*
X3454000Y-7785000D01*
X3564000Y-7730000D02*
G75*
G03*
X3564000Y-7730000I-55000J0D01*
G01*
X3708000Y-6151000D02*
X3818000Y-6261000D01*
X3818000Y-6151000D02*
X3708000Y-6261000D01*
X3818000Y-6206000D02*
G75*
G03*
X3818000Y-6206000I-55000J0D01*
G01*
X3708000Y-7675000D02*
X3818000Y-7785000D01*
X3818000Y-7675000D02*
X3708000Y-7785000D01*
X3818000Y-7730000D02*
G75*
G03*
X3818000Y-7730000I-55000J0D01*
G01*
X3962000Y-6151000D02*
X4072000Y-6261000D01*
X4072000Y-6151000D02*
X3962000Y-6261000D01*
X4072000Y-6206000D02*
G75*
G03*
X4072000Y-6206000I-55000J0D01*
G01*
X3962000Y-6405000D02*
X4072000Y-6515000D01*
X4072000Y-6405000D02*
X3962000Y-6515000D01*
X4072000Y-6460000D02*
G75*
G03*
X4072000Y-6460000I-55000J0D01*
G01*
X3962000Y-6659000D02*
X4072000Y-6769000D01*
X4072000Y-6659000D02*
X3962000Y-6769000D01*
X4072000Y-6714000D02*
G75*
G03*
X4072000Y-6714000I-55000J0D01*
G01*
X3962000Y-6913000D02*
X4072000Y-7023000D01*
X4072000Y-6913000D02*
X3962000Y-7023000D01*
X4072000Y-6968000D02*
G75*
G03*
X4072000Y-6968000I-55000J0D01*
G01*
X3962000Y-7167000D02*
X4072000Y-7277000D01*
X4072000Y-7167000D02*
X3962000Y-7277000D01*
X4072000Y-7222000D02*
G75*
G03*
X4072000Y-7222000I-55000J0D01*
G01*
X3962000Y-7421000D02*
X4072000Y-7531000D01*
X4072000Y-7421000D02*
X3962000Y-7531000D01*
X4072000Y-7476000D02*
G75*
G03*
X4072000Y-7476000I-55000J0D01*
G01*
X3962000Y-7675000D02*
X4072000Y-7785000D01*
X4072000Y-7675000D02*
X3962000Y-7785000D01*
X4072000Y-7730000D02*
G75*
G03*
X4072000Y-7730000I-55000J0D01*
G01*
X4216000Y-6151000D02*
X4326000Y-6261000D01*
X4326000Y-6151000D02*
X4216000Y-6261000D01*
X4326000Y-6206000D02*
G75*
G03*
X4326000Y-6206000I-55000J0D01*
G01*
X4216000Y-7675000D02*
X4326000Y-7785000D01*
X4326000Y-7675000D02*
X4216000Y-7785000D01*
X4326000Y-7730000D02*
G75*
G03*
X4326000Y-7730000I-55000J0D01*
G01*
X4470000Y-6151000D02*
X4580000Y-6261000D01*
X4580000Y-6151000D02*
X4470000Y-6261000D01*
X4580000Y-6206000D02*
G75*
G03*
X4580000Y-6206000I-55000J0D01*
G01*
X4470000Y-7675000D02*
X4580000Y-7785000D01*
X4580000Y-7675000D02*
X4470000Y-7785000D01*
X4580000Y-7730000D02*
G75*
G03*
X4580000Y-7730000I-55000J0D01*
G01*
X4724000Y-6151000D02*
X4834000Y-6261000D01*
X4834000Y-6151000D02*
X4724000Y-6261000D01*
X4834000Y-6206000D02*
G75*
G03*
X4834000Y-6206000I-55000J0D01*
G01*
X4724000Y-7675000D02*
X4834000Y-7785000D01*
X4834000Y-7675000D02*
X4724000Y-7785000D01*
X4834000Y-7730000D02*
G75*
G03*
X4834000Y-7730000I-55000J0D01*
G01*
X4769000Y-3216000D02*
X4879000Y-3326000D01*
X4879000Y-3216000D02*
X4769000Y-3326000D01*
X4879000Y-3271000D02*
G75*
G03*
X4879000Y-3271000I-55000J0D01*
G01*
X4789000Y-3316000D02*
X4859000Y-3316000D01*
X4789000Y-3226000D02*
X4859000Y-3226000D01*
X4859000Y-3316000D02*
G75*
G03*
X4859000Y-3226000I0J45000D01*
G01*
X4789000Y-3226000D02*
G75*
G03*
X4789000Y-3316000I0J-45000D01*
G01*
X4769000Y-4176000D02*
X4879000Y-4286000D01*
X4879000Y-4176000D02*
X4769000Y-4286000D01*
X4879000Y-4231000D02*
G75*
G03*
X4879000Y-4231000I-55000J0D01*
G01*
X4789000Y-4276000D02*
X4859000Y-4276000D01*
X4789000Y-4186000D02*
X4859000Y-4186000D01*
X4859000Y-4276000D02*
G75*
G03*
X4859000Y-4186000I0J45000D01*
G01*
X4789000Y-4186000D02*
G75*
G03*
X4789000Y-4276000I0J-45000D01*
G01*
X4978000Y-6151000D02*
X5088000Y-6261000D01*
X5088000Y-6151000D02*
X4978000Y-6261000D01*
X5088000Y-6206000D02*
G75*
G03*
X5088000Y-6206000I-55000J0D01*
G01*
X4978000Y-7675000D02*
X5088000Y-7785000D01*
X5088000Y-7675000D02*
X4978000Y-7785000D01*
X5088000Y-7730000D02*
G75*
G03*
X5088000Y-7730000I-55000J0D01*
G01*
X5232000Y-6151000D02*
X5342000Y-6261000D01*
X5342000Y-6151000D02*
X5232000Y-6261000D01*
X5342000Y-6206000D02*
G75*
G03*
X5342000Y-6206000I-55000J0D01*
G01*
X5232000Y-7675000D02*
X5342000Y-7785000D01*
X5342000Y-7675000D02*
X5232000Y-7785000D01*
X5342000Y-7730000D02*
G75*
G03*
X5342000Y-7730000I-55000J0D01*
G01*
X5486000Y-6151000D02*
X5596000Y-6261000D01*
X5596000Y-6151000D02*
X5486000Y-6261000D01*
X5596000Y-6206000D02*
G75*
G03*
X5596000Y-6206000I-55000J0D01*
G01*
X5486000Y-7675000D02*
X5596000Y-7785000D01*
X5596000Y-7675000D02*
X5486000Y-7785000D01*
X5596000Y-7730000D02*
G75*
G03*
X5596000Y-7730000I-55000J0D01*
G01*
X5740000Y-6151000D02*
X5850000Y-6261000D01*
X5850000Y-6151000D02*
X5740000Y-6261000D01*
X5850000Y-6206000D02*
G75*
G03*
X5850000Y-6206000I-55000J0D01*
G01*
X5740000Y-7675000D02*
X5850000Y-7785000D01*
X5850000Y-7675000D02*
X5740000Y-7785000D01*
X5850000Y-7730000D02*
G75*
G03*
X5850000Y-7730000I-55000J0D01*
G01*
X5994000Y-6151000D02*
X6104000Y-6261000D01*
X6104000Y-6151000D02*
X5994000Y-6261000D01*
X6104000Y-6206000D02*
G75*
G03*
X6104000Y-6206000I-55000J0D01*
G01*
X5994000Y-7675000D02*
X6104000Y-7785000D01*
X6104000Y-7675000D02*
X5994000Y-7785000D01*
X6104000Y-7730000D02*
G75*
G03*
X6104000Y-7730000I-55000J0D01*
G01*
X6248000Y-6151000D02*
X6358000Y-6261000D01*
X6358000Y-6151000D02*
X6248000Y-6261000D01*
X6358000Y-6206000D02*
G75*
G03*
X6358000Y-6206000I-55000J0D01*
G01*
X6248000Y-7675000D02*
X6358000Y-7785000D01*
X6358000Y-7675000D02*
X6248000Y-7785000D01*
X6358000Y-7730000D02*
G75*
G03*
X6358000Y-7730000I-55000J0D01*
G01*
X6502000Y-6151000D02*
X6612000Y-6261000D01*
X6612000Y-6151000D02*
X6502000Y-6261000D01*
X6612000Y-6206000D02*
G75*
G03*
X6612000Y-6206000I-55000J0D01*
G01*
X6502000Y-7675000D02*
X6612000Y-7785000D01*
X6612000Y-7675000D02*
X6502000Y-7785000D01*
X6612000Y-7730000D02*
G75*
G03*
X6612000Y-7730000I-55000J0D01*
G01*
X6756000Y-6151000D02*
X6866000Y-6261000D01*
X6866000Y-6151000D02*
X6756000Y-6261000D01*
X6866000Y-6206000D02*
G75*
G03*
X6866000Y-6206000I-55000J0D01*
G01*
X6756000Y-7675000D02*
X6866000Y-7785000D01*
X6866000Y-7675000D02*
X6756000Y-7785000D01*
X6866000Y-7730000D02*
G75*
G03*
X6866000Y-7730000I-55000J0D01*
G01*
X6888080Y-6456080D02*
X6998080Y-6566080D01*
X6998080Y-6456080D02*
X6888080Y-6566080D01*
X6998080Y-6511080D02*
G75*
G03*
X6998080Y-6511080I-55000J0D01*
G01*
X7010000Y-6151000D02*
X7120000Y-6261000D01*
X7120000Y-6151000D02*
X7010000Y-6261000D01*
X7120000Y-6206000D02*
G75*
G03*
X7120000Y-6206000I-55000J0D01*
G01*
X7010000Y-7675000D02*
X7120000Y-7785000D01*
X7120000Y-7675000D02*
X7010000Y-7785000D01*
X7120000Y-7730000D02*
G75*
G03*
X7120000Y-7730000I-55000J0D01*
G01*
X7142080Y-6456080D02*
X7252080Y-6566080D01*
X7252080Y-6456080D02*
X7142080Y-6566080D01*
X7252080Y-6511080D02*
G75*
G03*
X7252080Y-6511080I-55000J0D01*
G01*
X7264000Y-6151000D02*
X7374000Y-6261000D01*
X7374000Y-6151000D02*
X7264000Y-6261000D01*
X7374000Y-6206000D02*
G75*
G03*
X7374000Y-6206000I-55000J0D01*
G01*
X7264000Y-7675000D02*
X7374000Y-7785000D01*
X7374000Y-7675000D02*
X7264000Y-7785000D01*
X7374000Y-7730000D02*
G75*
G03*
X7374000Y-7730000I-55000J0D01*
G01*
X7396080Y-6456080D02*
X7506080Y-6566080D01*
X7506080Y-6456080D02*
X7396080Y-6566080D01*
X7506080Y-6511080D02*
G75*
G03*
X7506080Y-6511080I-55000J0D01*
G01*
X7518000Y-6151000D02*
X7628000Y-6261000D01*
X7628000Y-6151000D02*
X7518000Y-6261000D01*
X7628000Y-6206000D02*
G75*
G03*
X7628000Y-6206000I-55000J0D01*
G01*
X7518000Y-7675000D02*
X7628000Y-7785000D01*
X7628000Y-7675000D02*
X7518000Y-7785000D01*
X7628000Y-7730000D02*
G75*
G03*
X7628000Y-7730000I-55000J0D01*
G01*
X7650080Y-6456080D02*
X7760080Y-6566080D01*
X7760080Y-6456080D02*
X7650080Y-6566080D01*
X7760080Y-6511080D02*
G75*
G03*
X7760080Y-6511080I-55000J0D01*
G01*
X7772000Y-6151000D02*
X7882000Y-6261000D01*
X7882000Y-6151000D02*
X7772000Y-6261000D01*
X7882000Y-6206000D02*
G75*
G03*
X7882000Y-6206000I-55000J0D01*
G01*
X7772000Y-7675000D02*
X7882000Y-7785000D01*
X7882000Y-7675000D02*
X7772000Y-7785000D01*
X7882000Y-7730000D02*
G75*
G03*
X7882000Y-7730000I-55000J0D01*
G01*
X7904080Y-6456080D02*
X8014080Y-6566080D01*
X8014080Y-6456080D02*
X7904080Y-6566080D01*
X8014080Y-6511080D02*
G75*
G03*
X8014080Y-6511080I-55000J0D01*
G01*
X8026000Y-6151000D02*
X8136000Y-6261000D01*
X8136000Y-6151000D02*
X8026000Y-6261000D01*
X8136000Y-6206000D02*
G75*
G03*
X8136000Y-6206000I-55000J0D01*
G01*
X8026000Y-7675000D02*
X8136000Y-7785000D01*
X8136000Y-7675000D02*
X8026000Y-7785000D01*
X8136000Y-7730000D02*
G75*
G03*
X8136000Y-7730000I-55000J0D01*
G01*
X8280000Y-6151000D02*
X8390000Y-6261000D01*
X8390000Y-6151000D02*
X8280000Y-6261000D01*
X8390000Y-6206000D02*
G75*
G03*
X8390000Y-6206000I-55000J0D01*
G01*
X8280000Y-7421000D02*
X8390000Y-7531000D01*
X8390000Y-7421000D02*
X8280000Y-7531000D01*
X8390000Y-7476000D02*
G75*
G03*
X8390000Y-7476000I-55000J0D01*
G01*
X8280000Y-7675000D02*
X8390000Y-7785000D01*
X8390000Y-7675000D02*
X8280000Y-7785000D01*
X8390000Y-7730000D02*
G75*
G03*
X8390000Y-7730000I-55000J0D01*
G01*
X8534000Y-6151000D02*
X8644000Y-6261000D01*
X8644000Y-6151000D02*
X8534000Y-6261000D01*
X8644000Y-6206000D02*
G75*
G03*
X8644000Y-6206000I-55000J0D01*
G01*
X8534000Y-7675000D02*
X8644000Y-7785000D01*
X8644000Y-7675000D02*
X8534000Y-7785000D01*
X8644000Y-7730000D02*
G75*
G03*
X8644000Y-7730000I-55000J0D01*
G01*
X721000Y-4223000D02*
X861000Y-4363000D01*
X861000Y-4223000D02*
X721000Y-4363000D01*
X791000Y-4223000D02*
X791000Y-4363000D01*
X721000Y-4293000D02*
X861000Y-4293000D01*
X721000Y-4723000D02*
X861000Y-4863000D01*
X861000Y-4723000D02*
X721000Y-4863000D01*
X791000Y-4723000D02*
X791000Y-4863000D01*
X721000Y-4793000D02*
X861000Y-4793000D01*
X721000Y-5620000D02*
X861000Y-5760000D01*
X861000Y-5620000D02*
X721000Y-5760000D01*
X791000Y-5620000D02*
X791000Y-5760000D01*
X721000Y-5690000D02*
X861000Y-5690000D01*
X721000Y-6120000D02*
X861000Y-6260000D01*
X861000Y-6120000D02*
X721000Y-6260000D01*
X791000Y-6120000D02*
X791000Y-6260000D01*
X721000Y-6190000D02*
X861000Y-6190000D01*
D12*
X283928Y-12468214D02*
X283928Y-12168214D01*
X355357Y-12168214D01*
X398214Y-12182500D01*
X426786Y-12211071D01*
X441071Y-12239643D01*
X455357Y-12296786D01*
X455357Y-12339643D01*
X441071Y-12396786D01*
X426786Y-12425357D01*
X398214Y-12453929D01*
X355357Y-12468214D01*
X283928Y-12468214D01*
X583928Y-12468214D02*
X583928Y-12268214D01*
X583928Y-12325357D02*
X598214Y-12296786D01*
X612500Y-12282500D01*
X641071Y-12268214D01*
X669643Y-12268214D01*
X769643Y-12468214D02*
X769643Y-12268214D01*
X769643Y-12168214D02*
X755357Y-12182500D01*
X769643Y-12196786D01*
X783928Y-12182500D01*
X769643Y-12168214D01*
X769643Y-12196786D01*
X955357Y-12468214D02*
X926786Y-12453929D01*
X912500Y-12425357D01*
X912500Y-12168214D01*
X1112500Y-12468214D02*
X1083928Y-12453929D01*
X1069643Y-12425357D01*
X1069643Y-12168214D01*
X1455357Y-12468214D02*
X1455357Y-12168214D01*
X1555357Y-12382500D01*
X1655357Y-12168214D01*
X1655357Y-12468214D01*
X1926786Y-12468214D02*
X1926786Y-12311071D01*
X1912500Y-12282500D01*
X1883928Y-12268214D01*
X1826786Y-12268214D01*
X1798214Y-12282500D01*
X1926786Y-12453929D02*
X1898214Y-12468214D01*
X1826786Y-12468214D01*
X1798214Y-12453929D01*
X1783928Y-12425357D01*
X1783928Y-12396786D01*
X1798214Y-12368214D01*
X1826786Y-12353929D01*
X1898214Y-12353929D01*
X1926786Y-12339643D01*
X2069643Y-12268214D02*
X2069643Y-12568214D01*
X2069643Y-12282500D02*
X2098214Y-12268214D01*
X2155357Y-12268214D01*
X2183928Y-12282500D01*
X2198214Y-12296786D01*
X2212500Y-12325357D01*
X2212500Y-12411071D01*
X2198214Y-12439643D01*
X2183928Y-12453929D01*
X2155357Y-12468214D01*
X2098214Y-12468214D01*
X2069643Y-12453929D01*
X2341071Y-12439643D02*
X2355357Y-12453929D01*
X2341071Y-12468214D01*
X2326786Y-12453929D01*
X2341071Y-12439643D01*
X2341071Y-12468214D01*
X2341071Y-12282500D02*
X2355357Y-12296786D01*
X2341071Y-12311071D01*
X2326786Y-12296786D01*
X2341071Y-12282500D01*
X2341071Y-12311071D01*
X-42500Y-12942500D02*
X-2500Y-12982500D01*
X-2500Y-12942500D02*
X-42500Y-12982500D01*
X341071Y-12798214D02*
X369643Y-12798214D01*
X398214Y-12812500D01*
X412500Y-12826786D01*
X426786Y-12855357D01*
X441071Y-12912500D01*
X441071Y-12983929D01*
X426786Y-13041071D01*
X412500Y-13069643D01*
X398214Y-13083929D01*
X369643Y-13098214D01*
X341071Y-13098214D01*
X312500Y-13083929D01*
X298214Y-13069643D01*
X283928Y-13041071D01*
X269643Y-12983929D01*
X269643Y-12912500D01*
X283928Y-12855357D01*
X298214Y-12826786D01*
X312500Y-12812500D01*
X341071Y-12798214D01*
X569643Y-13069643D02*
X583928Y-13083929D01*
X569643Y-13098214D01*
X555357Y-13083929D01*
X569643Y-13069643D01*
X569643Y-13098214D01*
X841071Y-12898214D02*
X841071Y-13098214D01*
X769643Y-12783929D02*
X698214Y-12998214D01*
X883928Y-12998214D01*
X1055357Y-12798214D02*
X1083928Y-12798214D01*
X1112500Y-12812500D01*
X1126786Y-12826786D01*
X1141071Y-12855357D01*
X1155357Y-12912500D01*
X1155357Y-12983929D01*
X1141071Y-13041071D01*
X1126786Y-13069643D01*
X1112500Y-13083929D01*
X1083928Y-13098214D01*
X1055357Y-13098214D01*
X1026786Y-13083929D01*
X1012500Y-13069643D01*
X998214Y-13041071D01*
X983928Y-12983929D01*
X983928Y-12912500D01*
X998214Y-12855357D01*
X1012500Y-12826786D01*
X1026786Y-12812500D01*
X1055357Y-12798214D01*
X1341071Y-12798214D02*
X1369643Y-12798214D01*
X1398214Y-12812500D01*
X1412500Y-12826786D01*
X1426786Y-12855357D01*
X1441071Y-12912500D01*
X1441071Y-12983929D01*
X1426786Y-13041071D01*
X1412500Y-13069643D01*
X1398214Y-13083929D01*
X1369643Y-13098214D01*
X1341071Y-13098214D01*
X1312500Y-13083929D01*
X1298214Y-13069643D01*
X1283928Y-13041071D01*
X1269643Y-12983929D01*
X1269643Y-12912500D01*
X1283928Y-12855357D01*
X1298214Y-12826786D01*
X1312500Y-12812500D01*
X1341071Y-12798214D01*
X1569643Y-13098214D02*
X1569643Y-12898214D01*
X1569643Y-12926786D02*
X1583928Y-12912500D01*
X1612500Y-12898214D01*
X1655357Y-12898214D01*
X1683928Y-12912500D01*
X1698214Y-12941071D01*
X1698214Y-13098214D01*
X1698214Y-12941071D02*
X1712500Y-12912500D01*
X1741071Y-12898214D01*
X1783928Y-12898214D01*
X1812500Y-12912500D01*
X1826786Y-12941071D01*
X1826786Y-13098214D01*
X1969643Y-13098214D02*
X1969643Y-12898214D01*
X1969643Y-12926786D02*
X1983928Y-12912500D01*
X2012500Y-12898214D01*
X2055357Y-12898214D01*
X2083928Y-12912500D01*
X2098214Y-12941071D01*
X2098214Y-13098214D01*
X2098214Y-12941071D02*
X2112500Y-12912500D01*
X2141071Y-12898214D01*
X2183928Y-12898214D01*
X2212500Y-12912500D01*
X2226786Y-12941071D01*
X2226786Y-13098214D01*
X2812500Y-12783929D02*
X2555357Y-13169643D01*
X3198214Y-12798214D02*
X3226786Y-12798214D01*
X3255357Y-12812500D01*
X3269643Y-12826786D01*
X3283928Y-12855357D01*
X3298214Y-12912500D01*
X3298214Y-12983929D01*
X3283928Y-13041071D01*
X3269643Y-13069643D01*
X3255357Y-13083929D01*
X3226786Y-13098214D01*
X3198214Y-13098214D01*
X3169643Y-13083929D01*
X3155357Y-13069643D01*
X3141071Y-13041071D01*
X3126786Y-12983929D01*
X3126786Y-12912500D01*
X3141071Y-12855357D01*
X3155357Y-12826786D01*
X3169643Y-12812500D01*
X3198214Y-12798214D01*
X3426786Y-13069643D02*
X3441071Y-13083929D01*
X3426786Y-13098214D01*
X3412500Y-13083929D01*
X3426786Y-13069643D01*
X3426786Y-13098214D01*
X3626786Y-12798214D02*
X3655357Y-12798214D01*
X3683928Y-12812500D01*
X3698214Y-12826786D01*
X3712500Y-12855357D01*
X3726786Y-12912500D01*
X3726786Y-12983929D01*
X3712500Y-13041071D01*
X3698214Y-13069643D01*
X3683928Y-13083929D01*
X3655357Y-13098214D01*
X3626786Y-13098214D01*
X3598214Y-13083929D01*
X3583928Y-13069643D01*
X3569643Y-13041071D01*
X3555357Y-12983929D01*
X3555357Y-12912500D01*
X3569643Y-12855357D01*
X3583928Y-12826786D01*
X3598214Y-12812500D01*
X3626786Y-12798214D01*
X4012500Y-13098214D02*
X3841071Y-13098214D01*
X3926786Y-13098214D02*
X3926786Y-12798214D01*
X3898214Y-12841071D01*
X3869643Y-12869643D01*
X3841071Y-12883929D01*
X4283928Y-12798214D02*
X4141071Y-12798214D01*
X4126786Y-12941071D01*
X4141071Y-12926786D01*
X4169643Y-12912500D01*
X4241071Y-12912500D01*
X4269643Y-12926786D01*
X4283928Y-12941071D01*
X4298214Y-12969643D01*
X4298214Y-13041071D01*
X4283928Y-13069643D01*
X4269643Y-13083929D01*
X4241071Y-13098214D01*
X4169643Y-13098214D01*
X4141071Y-13083929D01*
X4126786Y-13069643D01*
X4398214Y-12798214D02*
X4598214Y-12798214D01*
X4469643Y-13098214D01*
X4698214Y-12798214D02*
X4698214Y-12855357D01*
X4812500Y-12798214D02*
X4812500Y-12855357D01*
X5255357Y-13212500D02*
X5241071Y-13198214D01*
X5212500Y-13155357D01*
X5198214Y-13126786D01*
X5183928Y-13083929D01*
X5169643Y-13012500D01*
X5169643Y-12955357D01*
X5183928Y-12883929D01*
X5198214Y-12841071D01*
X5212500Y-12812500D01*
X5241071Y-12769643D01*
X5255357Y-12755357D01*
X5341071Y-12798214D02*
X5526786Y-12798214D01*
X5426786Y-12912500D01*
X5469643Y-12912500D01*
X5498214Y-12926786D01*
X5512500Y-12941071D01*
X5526786Y-12969643D01*
X5526786Y-13041071D01*
X5512500Y-13069643D01*
X5498214Y-13083929D01*
X5469643Y-13098214D01*
X5383928Y-13098214D01*
X5355357Y-13083929D01*
X5341071Y-13069643D01*
X5883928Y-13098214D02*
X5883928Y-12798214D01*
X6012500Y-13098214D02*
X6012500Y-12941071D01*
X5998214Y-12912500D01*
X5969643Y-12898214D01*
X5926786Y-12898214D01*
X5898214Y-12912500D01*
X5883928Y-12926786D01*
X6198214Y-13098214D02*
X6169643Y-13083929D01*
X6155357Y-13069643D01*
X6141071Y-13041071D01*
X6141071Y-12955357D01*
X6155357Y-12926786D01*
X6169643Y-12912500D01*
X6198214Y-12898214D01*
X6241071Y-12898214D01*
X6269643Y-12912500D01*
X6283928Y-12926786D01*
X6298214Y-12955357D01*
X6298214Y-13041071D01*
X6283928Y-13069643D01*
X6269643Y-13083929D01*
X6241071Y-13098214D01*
X6198214Y-13098214D01*
X6469643Y-13098214D02*
X6441071Y-13083929D01*
X6426786Y-13055357D01*
X6426786Y-12798214D01*
X6698214Y-13083929D02*
X6669643Y-13098214D01*
X6612500Y-13098214D01*
X6583928Y-13083929D01*
X6569643Y-13055357D01*
X6569643Y-12941071D01*
X6583928Y-12912500D01*
X6612500Y-12898214D01*
X6669643Y-12898214D01*
X6698214Y-12912500D01*
X6712500Y-12941071D01*
X6712500Y-12969643D01*
X6569643Y-12998214D01*
X6826786Y-13083929D02*
X6855357Y-13098214D01*
X6912500Y-13098214D01*
X6941071Y-13083929D01*
X6955357Y-13055357D01*
X6955357Y-13041071D01*
X6941071Y-13012500D01*
X6912500Y-12998214D01*
X6869643Y-12998214D01*
X6841071Y-12983929D01*
X6826786Y-12955357D01*
X6826786Y-12941071D01*
X6841071Y-12912500D01*
X6869643Y-12898214D01*
X6912500Y-12898214D01*
X6941071Y-12912500D01*
X7055357Y-13212500D02*
X7069643Y-13198214D01*
X7098214Y-13155357D01*
X7112500Y-13126786D01*
X7126786Y-13083929D01*
X7141071Y-13012500D01*
X7141071Y-12955357D01*
X7126786Y-12883929D01*
X7112500Y-12841071D01*
X7098214Y-12812500D01*
X7069643Y-12769643D01*
X7055357Y-12755357D01*
X-2500Y-13358500D02*
G75*
G03*
X-2500Y-13358500I-35000J0D01*
G01*
X341071Y-13194214D02*
X369643Y-13194214D01*
X398214Y-13208500D01*
X412500Y-13222786D01*
X426786Y-13251357D01*
X441071Y-13308500D01*
X441071Y-13379929D01*
X426786Y-13437071D01*
X412500Y-13465643D01*
X398214Y-13479929D01*
X369643Y-13494214D01*
X341071Y-13494214D01*
X312500Y-13479929D01*
X298214Y-13465643D01*
X283928Y-13437071D01*
X269643Y-13379929D01*
X269643Y-13308500D01*
X283928Y-13251357D01*
X298214Y-13222786D01*
X312500Y-13208500D01*
X341071Y-13194214D01*
X569643Y-13465643D02*
X583928Y-13479929D01*
X569643Y-13494214D01*
X555357Y-13479929D01*
X569643Y-13465643D01*
X569643Y-13494214D01*
X683928Y-13194214D02*
X883928Y-13194214D01*
X755357Y-13494214D01*
X1055357Y-13194214D02*
X1083928Y-13194214D01*
X1112500Y-13208500D01*
X1126786Y-13222786D01*
X1141071Y-13251357D01*
X1155357Y-13308500D01*
X1155357Y-13379929D01*
X1141071Y-13437071D01*
X1126786Y-13465643D01*
X1112500Y-13479929D01*
X1083928Y-13494214D01*
X1055357Y-13494214D01*
X1026786Y-13479929D01*
X1012500Y-13465643D01*
X998214Y-13437071D01*
X983928Y-13379929D01*
X983928Y-13308500D01*
X998214Y-13251357D01*
X1012500Y-13222786D01*
X1026786Y-13208500D01*
X1055357Y-13194214D01*
X1341071Y-13194214D02*
X1369643Y-13194214D01*
X1398214Y-13208500D01*
X1412500Y-13222786D01*
X1426786Y-13251357D01*
X1441071Y-13308500D01*
X1441071Y-13379929D01*
X1426786Y-13437071D01*
X1412500Y-13465643D01*
X1398214Y-13479929D01*
X1369643Y-13494214D01*
X1341071Y-13494214D01*
X1312500Y-13479929D01*
X1298214Y-13465643D01*
X1283928Y-13437071D01*
X1269643Y-13379929D01*
X1269643Y-13308500D01*
X1283928Y-13251357D01*
X1298214Y-13222786D01*
X1312500Y-13208500D01*
X1341071Y-13194214D01*
X1569643Y-13494214D02*
X1569643Y-13294214D01*
X1569643Y-13322786D02*
X1583928Y-13308500D01*
X1612500Y-13294214D01*
X1655357Y-13294214D01*
X1683928Y-13308500D01*
X1698214Y-13337071D01*
X1698214Y-13494214D01*
X1698214Y-13337071D02*
X1712500Y-13308500D01*
X1741071Y-13294214D01*
X1783928Y-13294214D01*
X1812500Y-13308500D01*
X1826786Y-13337071D01*
X1826786Y-13494214D01*
X1969643Y-13494214D02*
X1969643Y-13294214D01*
X1969643Y-13322786D02*
X1983928Y-13308500D01*
X2012500Y-13294214D01*
X2055357Y-13294214D01*
X2083928Y-13308500D01*
X2098214Y-13337071D01*
X2098214Y-13494214D01*
X2098214Y-13337071D02*
X2112500Y-13308500D01*
X2141071Y-13294214D01*
X2183928Y-13294214D01*
X2212500Y-13308500D01*
X2226786Y-13337071D01*
X2226786Y-13494214D01*
X2812500Y-13179929D02*
X2555357Y-13565643D01*
X3198214Y-13194214D02*
X3226786Y-13194214D01*
X3255357Y-13208500D01*
X3269643Y-13222786D01*
X3283928Y-13251357D01*
X3298214Y-13308500D01*
X3298214Y-13379929D01*
X3283928Y-13437071D01*
X3269643Y-13465643D01*
X3255357Y-13479929D01*
X3226786Y-13494214D01*
X3198214Y-13494214D01*
X3169643Y-13479929D01*
X3155357Y-13465643D01*
X3141071Y-13437071D01*
X3126786Y-13379929D01*
X3126786Y-13308500D01*
X3141071Y-13251357D01*
X3155357Y-13222786D01*
X3169643Y-13208500D01*
X3198214Y-13194214D01*
X3426786Y-13465643D02*
X3441071Y-13479929D01*
X3426786Y-13494214D01*
X3412500Y-13479929D01*
X3426786Y-13465643D01*
X3426786Y-13494214D01*
X3626786Y-13194214D02*
X3655357Y-13194214D01*
X3683928Y-13208500D01*
X3698214Y-13222786D01*
X3712500Y-13251357D01*
X3726786Y-13308500D01*
X3726786Y-13379929D01*
X3712500Y-13437071D01*
X3698214Y-13465643D01*
X3683928Y-13479929D01*
X3655357Y-13494214D01*
X3626786Y-13494214D01*
X3598214Y-13479929D01*
X3583928Y-13465643D01*
X3569643Y-13437071D01*
X3555357Y-13379929D01*
X3555357Y-13308500D01*
X3569643Y-13251357D01*
X3583928Y-13222786D01*
X3598214Y-13208500D01*
X3626786Y-13194214D01*
X3841071Y-13222786D02*
X3855357Y-13208500D01*
X3883928Y-13194214D01*
X3955357Y-13194214D01*
X3983928Y-13208500D01*
X3998214Y-13222786D01*
X4012500Y-13251357D01*
X4012500Y-13279929D01*
X3998214Y-13322786D01*
X3826786Y-13494214D01*
X4012500Y-13494214D01*
X4112500Y-13194214D02*
X4312500Y-13194214D01*
X4183928Y-13494214D01*
X4555357Y-13194214D02*
X4498214Y-13194214D01*
X4469643Y-13208500D01*
X4455357Y-13222786D01*
X4426786Y-13265643D01*
X4412500Y-13322786D01*
X4412500Y-13437071D01*
X4426786Y-13465643D01*
X4441071Y-13479929D01*
X4469643Y-13494214D01*
X4526786Y-13494214D01*
X4555357Y-13479929D01*
X4569643Y-13465643D01*
X4583928Y-13437071D01*
X4583928Y-13365643D01*
X4569643Y-13337071D01*
X4555357Y-13322786D01*
X4526786Y-13308500D01*
X4469643Y-13308500D01*
X4441071Y-13322786D01*
X4426786Y-13337071D01*
X4412500Y-13365643D01*
X4698214Y-13194214D02*
X4698214Y-13251357D01*
X4812500Y-13194214D02*
X4812500Y-13251357D01*
X5255357Y-13608500D02*
X5241071Y-13594214D01*
X5212500Y-13551357D01*
X5198214Y-13522786D01*
X5183928Y-13479929D01*
X5169643Y-13408500D01*
X5169643Y-13351357D01*
X5183928Y-13279929D01*
X5198214Y-13237071D01*
X5212500Y-13208500D01*
X5241071Y-13165643D01*
X5255357Y-13151357D01*
X5498214Y-13194214D02*
X5441071Y-13194214D01*
X5412500Y-13208500D01*
X5398214Y-13222786D01*
X5369643Y-13265643D01*
X5355357Y-13322786D01*
X5355357Y-13437071D01*
X5369643Y-13465643D01*
X5383928Y-13479929D01*
X5412500Y-13494214D01*
X5469643Y-13494214D01*
X5498214Y-13479929D01*
X5512500Y-13465643D01*
X5526786Y-13437071D01*
X5526786Y-13365643D01*
X5512500Y-13337071D01*
X5498214Y-13322786D01*
X5469643Y-13308500D01*
X5412500Y-13308500D01*
X5383928Y-13322786D01*
X5369643Y-13337071D01*
X5355357Y-13365643D01*
X5883928Y-13494214D02*
X5883928Y-13194214D01*
X6012500Y-13494214D02*
X6012500Y-13337071D01*
X5998214Y-13308500D01*
X5969643Y-13294214D01*
X5926786Y-13294214D01*
X5898214Y-13308500D01*
X5883928Y-13322786D01*
X6198214Y-13494214D02*
X6169643Y-13479929D01*
X6155357Y-13465643D01*
X6141071Y-13437071D01*
X6141071Y-13351357D01*
X6155357Y-13322786D01*
X6169643Y-13308500D01*
X6198214Y-13294214D01*
X6241071Y-13294214D01*
X6269643Y-13308500D01*
X6283928Y-13322786D01*
X6298214Y-13351357D01*
X6298214Y-13437071D01*
X6283928Y-13465643D01*
X6269643Y-13479929D01*
X6241071Y-13494214D01*
X6198214Y-13494214D01*
X6469643Y-13494214D02*
X6441071Y-13479929D01*
X6426786Y-13451357D01*
X6426786Y-13194214D01*
X6698214Y-13479929D02*
X6669643Y-13494214D01*
X6612500Y-13494214D01*
X6583928Y-13479929D01*
X6569643Y-13451357D01*
X6569643Y-13337071D01*
X6583928Y-13308500D01*
X6612500Y-13294214D01*
X6669643Y-13294214D01*
X6698214Y-13308500D01*
X6712500Y-13337071D01*
X6712500Y-13365643D01*
X6569643Y-13394214D01*
X6826786Y-13479929D02*
X6855357Y-13494214D01*
X6912500Y-13494214D01*
X6941071Y-13479929D01*
X6955357Y-13451357D01*
X6955357Y-13437071D01*
X6941071Y-13408500D01*
X6912500Y-13394214D01*
X6869643Y-13394214D01*
X6841071Y-13379929D01*
X6826786Y-13351357D01*
X6826786Y-13337071D01*
X6841071Y-13308500D01*
X6869643Y-13294214D01*
X6912500Y-13294214D01*
X6941071Y-13308500D01*
X7055357Y-13608500D02*
X7069643Y-13594214D01*
X7098214Y-13551357D01*
X7112500Y-13522786D01*
X7126786Y-13479929D01*
X7141071Y-13408500D01*
X7141071Y-13351357D01*
X7126786Y-13279929D01*
X7112500Y-13237071D01*
X7098214Y-13208500D01*
X7069643Y-13165643D01*
X7055357Y-13151357D01*
X-42500Y-13714500D02*
X-42500Y-13794500D01*
X-82500Y-13754500D02*
X-2500Y-13754500D01*
X341071Y-13590214D02*
X369643Y-13590214D01*
X398214Y-13604500D01*
X412500Y-13618786D01*
X426786Y-13647357D01*
X441071Y-13704500D01*
X441071Y-13775929D01*
X426786Y-13833071D01*
X412500Y-13861643D01*
X398214Y-13875929D01*
X369643Y-13890214D01*
X341071Y-13890214D01*
X312500Y-13875929D01*
X298214Y-13861643D01*
X283928Y-13833071D01*
X269643Y-13775929D01*
X269643Y-13704500D01*
X283928Y-13647357D01*
X298214Y-13618786D01*
X312500Y-13604500D01*
X341071Y-13590214D01*
X569643Y-13861643D02*
X583928Y-13875929D01*
X569643Y-13890214D01*
X555357Y-13875929D01*
X569643Y-13861643D01*
X569643Y-13890214D01*
X755357Y-13718786D02*
X726786Y-13704500D01*
X712500Y-13690214D01*
X698214Y-13661643D01*
X698214Y-13647357D01*
X712500Y-13618786D01*
X726786Y-13604500D01*
X755357Y-13590214D01*
X812500Y-13590214D01*
X841071Y-13604500D01*
X855357Y-13618786D01*
X869643Y-13647357D01*
X869643Y-13661643D01*
X855357Y-13690214D01*
X841071Y-13704500D01*
X812500Y-13718786D01*
X755357Y-13718786D01*
X726786Y-13733071D01*
X712500Y-13747357D01*
X698214Y-13775929D01*
X698214Y-13833071D01*
X712500Y-13861643D01*
X726786Y-13875929D01*
X755357Y-13890214D01*
X812500Y-13890214D01*
X841071Y-13875929D01*
X855357Y-13861643D01*
X869643Y-13833071D01*
X869643Y-13775929D01*
X855357Y-13747357D01*
X841071Y-13733071D01*
X812500Y-13718786D01*
X1055357Y-13590214D02*
X1083928Y-13590214D01*
X1112500Y-13604500D01*
X1126786Y-13618786D01*
X1141071Y-13647357D01*
X1155357Y-13704500D01*
X1155357Y-13775929D01*
X1141071Y-13833071D01*
X1126786Y-13861643D01*
X1112500Y-13875929D01*
X1083928Y-13890214D01*
X1055357Y-13890214D01*
X1026786Y-13875929D01*
X1012500Y-13861643D01*
X998214Y-13833071D01*
X983928Y-13775929D01*
X983928Y-13704500D01*
X998214Y-13647357D01*
X1012500Y-13618786D01*
X1026786Y-13604500D01*
X1055357Y-13590214D01*
X1341071Y-13590214D02*
X1369643Y-13590214D01*
X1398214Y-13604500D01*
X1412500Y-13618786D01*
X1426786Y-13647357D01*
X1441071Y-13704500D01*
X1441071Y-13775929D01*
X1426786Y-13833071D01*
X1412500Y-13861643D01*
X1398214Y-13875929D01*
X1369643Y-13890214D01*
X1341071Y-13890214D01*
X1312500Y-13875929D01*
X1298214Y-13861643D01*
X1283928Y-13833071D01*
X1269643Y-13775929D01*
X1269643Y-13704500D01*
X1283928Y-13647357D01*
X1298214Y-13618786D01*
X1312500Y-13604500D01*
X1341071Y-13590214D01*
X1569643Y-13890214D02*
X1569643Y-13690214D01*
X1569643Y-13718786D02*
X1583928Y-13704500D01*
X1612500Y-13690214D01*
X1655357Y-13690214D01*
X1683928Y-13704500D01*
X1698214Y-13733071D01*
X1698214Y-13890214D01*
X1698214Y-13733071D02*
X1712500Y-13704500D01*
X1741071Y-13690214D01*
X1783928Y-13690214D01*
X1812500Y-13704500D01*
X1826786Y-13733071D01*
X1826786Y-13890214D01*
X1969643Y-13890214D02*
X1969643Y-13690214D01*
X1969643Y-13718786D02*
X1983928Y-13704500D01*
X2012500Y-13690214D01*
X2055357Y-13690214D01*
X2083928Y-13704500D01*
X2098214Y-13733071D01*
X2098214Y-13890214D01*
X2098214Y-13733071D02*
X2112500Y-13704500D01*
X2141071Y-13690214D01*
X2183928Y-13690214D01*
X2212500Y-13704500D01*
X2226786Y-13733071D01*
X2226786Y-13890214D01*
X2812500Y-13575929D02*
X2555357Y-13961643D01*
X3198214Y-13590214D02*
X3226786Y-13590214D01*
X3255357Y-13604500D01*
X3269643Y-13618786D01*
X3283928Y-13647357D01*
X3298214Y-13704500D01*
X3298214Y-13775929D01*
X3283928Y-13833071D01*
X3269643Y-13861643D01*
X3255357Y-13875929D01*
X3226786Y-13890214D01*
X3198214Y-13890214D01*
X3169643Y-13875929D01*
X3155357Y-13861643D01*
X3141071Y-13833071D01*
X3126786Y-13775929D01*
X3126786Y-13704500D01*
X3141071Y-13647357D01*
X3155357Y-13618786D01*
X3169643Y-13604500D01*
X3198214Y-13590214D01*
X3426786Y-13861643D02*
X3441071Y-13875929D01*
X3426786Y-13890214D01*
X3412500Y-13875929D01*
X3426786Y-13861643D01*
X3426786Y-13890214D01*
X3626786Y-13590214D02*
X3655357Y-13590214D01*
X3683928Y-13604500D01*
X3698214Y-13618786D01*
X3712500Y-13647357D01*
X3726786Y-13704500D01*
X3726786Y-13775929D01*
X3712500Y-13833071D01*
X3698214Y-13861643D01*
X3683928Y-13875929D01*
X3655357Y-13890214D01*
X3626786Y-13890214D01*
X3598214Y-13875929D01*
X3583928Y-13861643D01*
X3569643Y-13833071D01*
X3555357Y-13775929D01*
X3555357Y-13704500D01*
X3569643Y-13647357D01*
X3583928Y-13618786D01*
X3598214Y-13604500D01*
X3626786Y-13590214D01*
X3826786Y-13590214D02*
X4012500Y-13590214D01*
X3912500Y-13704500D01*
X3955357Y-13704500D01*
X3983928Y-13718786D01*
X3998214Y-13733071D01*
X4012500Y-13761643D01*
X4012500Y-13833071D01*
X3998214Y-13861643D01*
X3983928Y-13875929D01*
X3955357Y-13890214D01*
X3869643Y-13890214D01*
X3841071Y-13875929D01*
X3826786Y-13861643D01*
X4298214Y-13890214D02*
X4126786Y-13890214D01*
X4212500Y-13890214D02*
X4212500Y-13590214D01*
X4183928Y-13633071D01*
X4155357Y-13661643D01*
X4126786Y-13675929D01*
X4569643Y-13590214D02*
X4426786Y-13590214D01*
X4412500Y-13733071D01*
X4426786Y-13718786D01*
X4455357Y-13704500D01*
X4526786Y-13704500D01*
X4555357Y-13718786D01*
X4569643Y-13733071D01*
X4583928Y-13761643D01*
X4583928Y-13833071D01*
X4569643Y-13861643D01*
X4555357Y-13875929D01*
X4526786Y-13890214D01*
X4455357Y-13890214D01*
X4426786Y-13875929D01*
X4412500Y-13861643D01*
X4698214Y-13590214D02*
X4698214Y-13647357D01*
X4812500Y-13590214D02*
X4812500Y-13647357D01*
X5255357Y-14004500D02*
X5241071Y-13990214D01*
X5212500Y-13947357D01*
X5198214Y-13918786D01*
X5183928Y-13875929D01*
X5169643Y-13804500D01*
X5169643Y-13747357D01*
X5183928Y-13675929D01*
X5198214Y-13633071D01*
X5212500Y-13604500D01*
X5241071Y-13561643D01*
X5255357Y-13547357D01*
X5355357Y-13618786D02*
X5369643Y-13604500D01*
X5398214Y-13590214D01*
X5469643Y-13590214D01*
X5498214Y-13604500D01*
X5512500Y-13618786D01*
X5526786Y-13647357D01*
X5526786Y-13675929D01*
X5512500Y-13718786D01*
X5341071Y-13890214D01*
X5526786Y-13890214D01*
X5783928Y-13690214D02*
X5783928Y-13890214D01*
X5712500Y-13575929D02*
X5641071Y-13790214D01*
X5826786Y-13790214D01*
X6169643Y-13890214D02*
X6169643Y-13590214D01*
X6298214Y-13890214D02*
X6298214Y-13733071D01*
X6283928Y-13704500D01*
X6255357Y-13690214D01*
X6212500Y-13690214D01*
X6183928Y-13704500D01*
X6169643Y-13718786D01*
X6483928Y-13890214D02*
X6455357Y-13875929D01*
X6441071Y-13861643D01*
X6426786Y-13833071D01*
X6426786Y-13747357D01*
X6441071Y-13718786D01*
X6455357Y-13704500D01*
X6483928Y-13690214D01*
X6526786Y-13690214D01*
X6555357Y-13704500D01*
X6569643Y-13718786D01*
X6583928Y-13747357D01*
X6583928Y-13833071D01*
X6569643Y-13861643D01*
X6555357Y-13875929D01*
X6526786Y-13890214D01*
X6483928Y-13890214D01*
X6755357Y-13890214D02*
X6726786Y-13875929D01*
X6712500Y-13847357D01*
X6712500Y-13590214D01*
X6983928Y-13875929D02*
X6955357Y-13890214D01*
X6898214Y-13890214D01*
X6869643Y-13875929D01*
X6855357Y-13847357D01*
X6855357Y-13733071D01*
X6869643Y-13704500D01*
X6898214Y-13690214D01*
X6955357Y-13690214D01*
X6983928Y-13704500D01*
X6998214Y-13733071D01*
X6998214Y-13761643D01*
X6855357Y-13790214D01*
X7112500Y-13875929D02*
X7141071Y-13890214D01*
X7198214Y-13890214D01*
X7226786Y-13875929D01*
X7241071Y-13847357D01*
X7241071Y-13833071D01*
X7226786Y-13804500D01*
X7198214Y-13790214D01*
X7155357Y-13790214D01*
X7126786Y-13775929D01*
X7112500Y-13747357D01*
X7112500Y-13733071D01*
X7126786Y-13704500D01*
X7155357Y-13690214D01*
X7198214Y-13690214D01*
X7226786Y-13704500D01*
X7341071Y-14004500D02*
X7355357Y-13990214D01*
X7383928Y-13947357D01*
X7398214Y-13918786D01*
X7412500Y-13875929D01*
X7426786Y-13804500D01*
X7426786Y-13747357D01*
X7412500Y-13675929D01*
X7398214Y-13633071D01*
X7383928Y-13604500D01*
X7355357Y-13561643D01*
X7341071Y-13547357D01*
X-14508Y-14179492D02*
X-14508Y-14121508D01*
X-72492Y-14121508D01*
X-72492Y-14179492D01*
X-14508Y-14179492D01*
X341071Y-13986214D02*
X369643Y-13986214D01*
X398214Y-14000500D01*
X412500Y-14014786D01*
X426786Y-14043357D01*
X441071Y-14100500D01*
X441071Y-14171929D01*
X426786Y-14229071D01*
X412500Y-14257643D01*
X398214Y-14271929D01*
X369643Y-14286214D01*
X341071Y-14286214D01*
X312500Y-14271929D01*
X298214Y-14257643D01*
X283928Y-14229071D01*
X269643Y-14171929D01*
X269643Y-14100500D01*
X283928Y-14043357D01*
X298214Y-14014786D01*
X312500Y-14000500D01*
X341071Y-13986214D01*
X569643Y-14257643D02*
X583928Y-14271929D01*
X569643Y-14286214D01*
X555357Y-14271929D01*
X569643Y-14257643D01*
X569643Y-14286214D01*
X755357Y-14114786D02*
X726786Y-14100500D01*
X712500Y-14086214D01*
X698214Y-14057643D01*
X698214Y-14043357D01*
X712500Y-14014786D01*
X726786Y-14000500D01*
X755357Y-13986214D01*
X812500Y-13986214D01*
X841071Y-14000500D01*
X855357Y-14014786D01*
X869643Y-14043357D01*
X869643Y-14057643D01*
X855357Y-14086214D01*
X841071Y-14100500D01*
X812500Y-14114786D01*
X755357Y-14114786D01*
X726786Y-14129071D01*
X712500Y-14143357D01*
X698214Y-14171929D01*
X698214Y-14229071D01*
X712500Y-14257643D01*
X726786Y-14271929D01*
X755357Y-14286214D01*
X812500Y-14286214D01*
X841071Y-14271929D01*
X855357Y-14257643D01*
X869643Y-14229071D01*
X869643Y-14171929D01*
X855357Y-14143357D01*
X841071Y-14129071D01*
X812500Y-14114786D01*
X983928Y-14014786D02*
X998214Y-14000500D01*
X1026786Y-13986214D01*
X1098214Y-13986214D01*
X1126786Y-14000500D01*
X1141071Y-14014786D01*
X1155357Y-14043357D01*
X1155357Y-14071929D01*
X1141071Y-14114786D01*
X969643Y-14286214D01*
X1155357Y-14286214D01*
X1341071Y-13986214D02*
X1369643Y-13986214D01*
X1398214Y-14000500D01*
X1412500Y-14014786D01*
X1426786Y-14043357D01*
X1441071Y-14100500D01*
X1441071Y-14171929D01*
X1426786Y-14229071D01*
X1412500Y-14257643D01*
X1398214Y-14271929D01*
X1369643Y-14286214D01*
X1341071Y-14286214D01*
X1312500Y-14271929D01*
X1298214Y-14257643D01*
X1283928Y-14229071D01*
X1269643Y-14171929D01*
X1269643Y-14100500D01*
X1283928Y-14043357D01*
X1298214Y-14014786D01*
X1312500Y-14000500D01*
X1341071Y-13986214D01*
X1569643Y-14286214D02*
X1569643Y-14086214D01*
X1569643Y-14114786D02*
X1583928Y-14100500D01*
X1612500Y-14086214D01*
X1655357Y-14086214D01*
X1683928Y-14100500D01*
X1698214Y-14129071D01*
X1698214Y-14286214D01*
X1698214Y-14129071D02*
X1712500Y-14100500D01*
X1741071Y-14086214D01*
X1783928Y-14086214D01*
X1812500Y-14100500D01*
X1826786Y-14129071D01*
X1826786Y-14286214D01*
X1969643Y-14286214D02*
X1969643Y-14086214D01*
X1969643Y-14114786D02*
X1983928Y-14100500D01*
X2012500Y-14086214D01*
X2055357Y-14086214D01*
X2083928Y-14100500D01*
X2098214Y-14129071D01*
X2098214Y-14286214D01*
X2098214Y-14129071D02*
X2112500Y-14100500D01*
X2141071Y-14086214D01*
X2183928Y-14086214D01*
X2212500Y-14100500D01*
X2226786Y-14129071D01*
X2226786Y-14286214D01*
X2812500Y-13971929D02*
X2555357Y-14357643D01*
X3198214Y-13986214D02*
X3226786Y-13986214D01*
X3255357Y-14000500D01*
X3269643Y-14014786D01*
X3283928Y-14043357D01*
X3298214Y-14100500D01*
X3298214Y-14171929D01*
X3283928Y-14229071D01*
X3269643Y-14257643D01*
X3255357Y-14271929D01*
X3226786Y-14286214D01*
X3198214Y-14286214D01*
X3169643Y-14271929D01*
X3155357Y-14257643D01*
X3141071Y-14229071D01*
X3126786Y-14171929D01*
X3126786Y-14100500D01*
X3141071Y-14043357D01*
X3155357Y-14014786D01*
X3169643Y-14000500D01*
X3198214Y-13986214D01*
X3426786Y-14257643D02*
X3441071Y-14271929D01*
X3426786Y-14286214D01*
X3412500Y-14271929D01*
X3426786Y-14257643D01*
X3426786Y-14286214D01*
X3626786Y-13986214D02*
X3655357Y-13986214D01*
X3683928Y-14000500D01*
X3698214Y-14014786D01*
X3712500Y-14043357D01*
X3726786Y-14100500D01*
X3726786Y-14171929D01*
X3712500Y-14229071D01*
X3698214Y-14257643D01*
X3683928Y-14271929D01*
X3655357Y-14286214D01*
X3626786Y-14286214D01*
X3598214Y-14271929D01*
X3583928Y-14257643D01*
X3569643Y-14229071D01*
X3555357Y-14171929D01*
X3555357Y-14100500D01*
X3569643Y-14043357D01*
X3583928Y-14014786D01*
X3598214Y-14000500D01*
X3626786Y-13986214D01*
X3826786Y-13986214D02*
X4012500Y-13986214D01*
X3912500Y-14100500D01*
X3955357Y-14100500D01*
X3983928Y-14114786D01*
X3998214Y-14129071D01*
X4012500Y-14157643D01*
X4012500Y-14229071D01*
X3998214Y-14257643D01*
X3983928Y-14271929D01*
X3955357Y-14286214D01*
X3869643Y-14286214D01*
X3841071Y-14271929D01*
X3826786Y-14257643D01*
X4126786Y-14014786D02*
X4141071Y-14000500D01*
X4169643Y-13986214D01*
X4241071Y-13986214D01*
X4269643Y-14000500D01*
X4283928Y-14014786D01*
X4298214Y-14043357D01*
X4298214Y-14071929D01*
X4283928Y-14114786D01*
X4112500Y-14286214D01*
X4298214Y-14286214D01*
X4398214Y-13986214D02*
X4583928Y-13986214D01*
X4483928Y-14100500D01*
X4526786Y-14100500D01*
X4555357Y-14114786D01*
X4569643Y-14129071D01*
X4583928Y-14157643D01*
X4583928Y-14229071D01*
X4569643Y-14257643D01*
X4555357Y-14271929D01*
X4526786Y-14286214D01*
X4441071Y-14286214D01*
X4412500Y-14271929D01*
X4398214Y-14257643D01*
X4698214Y-13986214D02*
X4698214Y-14043357D01*
X4812500Y-13986214D02*
X4812500Y-14043357D01*
X5255357Y-14400500D02*
X5241071Y-14386214D01*
X5212500Y-14343357D01*
X5198214Y-14314786D01*
X5183928Y-14271929D01*
X5169643Y-14200500D01*
X5169643Y-14143357D01*
X5183928Y-14071929D01*
X5198214Y-14029071D01*
X5212500Y-14000500D01*
X5241071Y-13957643D01*
X5255357Y-13943357D01*
X5355357Y-14014786D02*
X5369643Y-14000500D01*
X5398214Y-13986214D01*
X5469643Y-13986214D01*
X5498214Y-14000500D01*
X5512500Y-14014786D01*
X5526786Y-14043357D01*
X5526786Y-14071929D01*
X5512500Y-14114786D01*
X5341071Y-14286214D01*
X5526786Y-14286214D01*
X5698214Y-14114786D02*
X5669643Y-14100500D01*
X5655357Y-14086214D01*
X5641071Y-14057643D01*
X5641071Y-14043357D01*
X5655357Y-14014786D01*
X5669643Y-14000500D01*
X5698214Y-13986214D01*
X5755357Y-13986214D01*
X5783928Y-14000500D01*
X5798214Y-14014786D01*
X5812500Y-14043357D01*
X5812500Y-14057643D01*
X5798214Y-14086214D01*
X5783928Y-14100500D01*
X5755357Y-14114786D01*
X5698214Y-14114786D01*
X5669643Y-14129071D01*
X5655357Y-14143357D01*
X5641071Y-14171929D01*
X5641071Y-14229071D01*
X5655357Y-14257643D01*
X5669643Y-14271929D01*
X5698214Y-14286214D01*
X5755357Y-14286214D01*
X5783928Y-14271929D01*
X5798214Y-14257643D01*
X5812500Y-14229071D01*
X5812500Y-14171929D01*
X5798214Y-14143357D01*
X5783928Y-14129071D01*
X5755357Y-14114786D01*
X6169643Y-14286214D02*
X6169643Y-13986214D01*
X6298214Y-14286214D02*
X6298214Y-14129071D01*
X6283928Y-14100500D01*
X6255357Y-14086214D01*
X6212500Y-14086214D01*
X6183928Y-14100500D01*
X6169643Y-14114786D01*
X6483928Y-14286214D02*
X6455357Y-14271929D01*
X6441071Y-14257643D01*
X6426786Y-14229071D01*
X6426786Y-14143357D01*
X6441071Y-14114786D01*
X6455357Y-14100500D01*
X6483928Y-14086214D01*
X6526786Y-14086214D01*
X6555357Y-14100500D01*
X6569643Y-14114786D01*
X6583928Y-14143357D01*
X6583928Y-14229071D01*
X6569643Y-14257643D01*
X6555357Y-14271929D01*
X6526786Y-14286214D01*
X6483928Y-14286214D01*
X6755357Y-14286214D02*
X6726786Y-14271929D01*
X6712500Y-14243357D01*
X6712500Y-13986214D01*
X6983928Y-14271929D02*
X6955357Y-14286214D01*
X6898214Y-14286214D01*
X6869643Y-14271929D01*
X6855357Y-14243357D01*
X6855357Y-14129071D01*
X6869643Y-14100500D01*
X6898214Y-14086214D01*
X6955357Y-14086214D01*
X6983928Y-14100500D01*
X6998214Y-14129071D01*
X6998214Y-14157643D01*
X6855357Y-14186214D01*
X7112500Y-14271929D02*
X7141071Y-14286214D01*
X7198214Y-14286214D01*
X7226786Y-14271929D01*
X7241071Y-14243357D01*
X7241071Y-14229071D01*
X7226786Y-14200500D01*
X7198214Y-14186214D01*
X7155357Y-14186214D01*
X7126786Y-14171929D01*
X7112500Y-14143357D01*
X7112500Y-14129071D01*
X7126786Y-14100500D01*
X7155357Y-14086214D01*
X7198214Y-14086214D01*
X7226786Y-14100500D01*
X7341071Y-14400500D02*
X7355357Y-14386214D01*
X7383928Y-14343357D01*
X7398214Y-14314786D01*
X7412500Y-14271929D01*
X7426786Y-14200500D01*
X7426786Y-14143357D01*
X7412500Y-14071929D01*
X7398214Y-14029071D01*
X7383928Y-14000500D01*
X7355357Y-13957643D01*
X7341071Y-13943357D01*
X-52500Y-14596500D02*
X-2500Y-14546500D01*
X-52500Y-14496500D01*
X-102500Y-14546500D01*
X-52500Y-14596500D01*
X441071Y-14682214D02*
X269643Y-14682214D01*
X355357Y-14682214D02*
X355357Y-14382214D01*
X326786Y-14425071D01*
X298214Y-14453643D01*
X269643Y-14467929D01*
X569643Y-14653643D02*
X583928Y-14667929D01*
X569643Y-14682214D01*
X555357Y-14667929D01*
X569643Y-14653643D01*
X569643Y-14682214D01*
X769643Y-14382214D02*
X798214Y-14382214D01*
X826786Y-14396500D01*
X841071Y-14410786D01*
X855357Y-14439357D01*
X869643Y-14496500D01*
X869643Y-14567929D01*
X855357Y-14625071D01*
X841071Y-14653643D01*
X826786Y-14667929D01*
X798214Y-14682214D01*
X769643Y-14682214D01*
X741071Y-14667929D01*
X726786Y-14653643D01*
X712500Y-14625071D01*
X698214Y-14567929D01*
X698214Y-14496500D01*
X712500Y-14439357D01*
X726786Y-14410786D01*
X741071Y-14396500D01*
X769643Y-14382214D01*
X1055357Y-14382214D02*
X1083928Y-14382214D01*
X1112500Y-14396500D01*
X1126786Y-14410786D01*
X1141071Y-14439357D01*
X1155357Y-14496500D01*
X1155357Y-14567929D01*
X1141071Y-14625071D01*
X1126786Y-14653643D01*
X1112500Y-14667929D01*
X1083928Y-14682214D01*
X1055357Y-14682214D01*
X1026786Y-14667929D01*
X1012500Y-14653643D01*
X998214Y-14625071D01*
X983928Y-14567929D01*
X983928Y-14496500D01*
X998214Y-14439357D01*
X1012500Y-14410786D01*
X1026786Y-14396500D01*
X1055357Y-14382214D01*
X1341071Y-14382214D02*
X1369643Y-14382214D01*
X1398214Y-14396500D01*
X1412500Y-14410786D01*
X1426786Y-14439357D01*
X1441071Y-14496500D01*
X1441071Y-14567929D01*
X1426786Y-14625071D01*
X1412500Y-14653643D01*
X1398214Y-14667929D01*
X1369643Y-14682214D01*
X1341071Y-14682214D01*
X1312500Y-14667929D01*
X1298214Y-14653643D01*
X1283928Y-14625071D01*
X1269643Y-14567929D01*
X1269643Y-14496500D01*
X1283928Y-14439357D01*
X1298214Y-14410786D01*
X1312500Y-14396500D01*
X1341071Y-14382214D01*
X1569643Y-14682214D02*
X1569643Y-14482214D01*
X1569643Y-14510786D02*
X1583928Y-14496500D01*
X1612500Y-14482214D01*
X1655357Y-14482214D01*
X1683928Y-14496500D01*
X1698214Y-14525071D01*
X1698214Y-14682214D01*
X1698214Y-14525071D02*
X1712500Y-14496500D01*
X1741071Y-14482214D01*
X1783928Y-14482214D01*
X1812500Y-14496500D01*
X1826786Y-14525071D01*
X1826786Y-14682214D01*
X1969643Y-14682214D02*
X1969643Y-14482214D01*
X1969643Y-14510786D02*
X1983928Y-14496500D01*
X2012500Y-14482214D01*
X2055357Y-14482214D01*
X2083928Y-14496500D01*
X2098214Y-14525071D01*
X2098214Y-14682214D01*
X2098214Y-14525071D02*
X2112500Y-14496500D01*
X2141071Y-14482214D01*
X2183928Y-14482214D01*
X2212500Y-14496500D01*
X2226786Y-14525071D01*
X2226786Y-14682214D01*
X2812500Y-14367929D02*
X2555357Y-14753643D01*
X3198214Y-14382214D02*
X3226786Y-14382214D01*
X3255357Y-14396500D01*
X3269643Y-14410786D01*
X3283928Y-14439357D01*
X3298214Y-14496500D01*
X3298214Y-14567929D01*
X3283928Y-14625071D01*
X3269643Y-14653643D01*
X3255357Y-14667929D01*
X3226786Y-14682214D01*
X3198214Y-14682214D01*
X3169643Y-14667929D01*
X3155357Y-14653643D01*
X3141071Y-14625071D01*
X3126786Y-14567929D01*
X3126786Y-14496500D01*
X3141071Y-14439357D01*
X3155357Y-14410786D01*
X3169643Y-14396500D01*
X3198214Y-14382214D01*
X3426786Y-14653643D02*
X3441071Y-14667929D01*
X3426786Y-14682214D01*
X3412500Y-14667929D01*
X3426786Y-14653643D01*
X3426786Y-14682214D01*
X3626786Y-14382214D02*
X3655357Y-14382214D01*
X3683928Y-14396500D01*
X3698214Y-14410786D01*
X3712500Y-14439357D01*
X3726786Y-14496500D01*
X3726786Y-14567929D01*
X3712500Y-14625071D01*
X3698214Y-14653643D01*
X3683928Y-14667929D01*
X3655357Y-14682214D01*
X3626786Y-14682214D01*
X3598214Y-14667929D01*
X3583928Y-14653643D01*
X3569643Y-14625071D01*
X3555357Y-14567929D01*
X3555357Y-14496500D01*
X3569643Y-14439357D01*
X3583928Y-14410786D01*
X3598214Y-14396500D01*
X3626786Y-14382214D01*
X3826786Y-14382214D02*
X4012500Y-14382214D01*
X3912500Y-14496500D01*
X3955357Y-14496500D01*
X3983928Y-14510786D01*
X3998214Y-14525071D01*
X4012500Y-14553643D01*
X4012500Y-14625071D01*
X3998214Y-14653643D01*
X3983928Y-14667929D01*
X3955357Y-14682214D01*
X3869643Y-14682214D01*
X3841071Y-14667929D01*
X3826786Y-14653643D01*
X4155357Y-14682214D02*
X4212500Y-14682214D01*
X4241071Y-14667929D01*
X4255357Y-14653643D01*
X4283928Y-14610786D01*
X4298214Y-14553643D01*
X4298214Y-14439357D01*
X4283928Y-14410786D01*
X4269643Y-14396500D01*
X4241071Y-14382214D01*
X4183928Y-14382214D01*
X4155357Y-14396500D01*
X4141071Y-14410786D01*
X4126786Y-14439357D01*
X4126786Y-14510786D01*
X4141071Y-14539357D01*
X4155357Y-14553643D01*
X4183928Y-14567929D01*
X4241071Y-14567929D01*
X4269643Y-14553643D01*
X4283928Y-14539357D01*
X4298214Y-14510786D01*
X4555357Y-14482214D02*
X4555357Y-14682214D01*
X4483928Y-14367929D02*
X4412500Y-14582214D01*
X4598214Y-14582214D01*
X4698214Y-14382214D02*
X4698214Y-14439357D01*
X4812500Y-14382214D02*
X4812500Y-14439357D01*
X5255357Y-14796500D02*
X5241071Y-14782214D01*
X5212500Y-14739357D01*
X5198214Y-14710786D01*
X5183928Y-14667929D01*
X5169643Y-14596500D01*
X5169643Y-14539357D01*
X5183928Y-14467929D01*
X5198214Y-14425071D01*
X5212500Y-14396500D01*
X5241071Y-14353643D01*
X5255357Y-14339357D01*
X5355357Y-14410786D02*
X5369643Y-14396500D01*
X5398214Y-14382214D01*
X5469643Y-14382214D01*
X5498214Y-14396500D01*
X5512500Y-14410786D01*
X5526786Y-14439357D01*
X5526786Y-14467929D01*
X5512500Y-14510786D01*
X5341071Y-14682214D01*
X5526786Y-14682214D01*
X5798214Y-14382214D02*
X5655357Y-14382214D01*
X5641071Y-14525071D01*
X5655357Y-14510786D01*
X5683928Y-14496500D01*
X5755357Y-14496500D01*
X5783928Y-14510786D01*
X5798214Y-14525071D01*
X5812500Y-14553643D01*
X5812500Y-14625071D01*
X5798214Y-14653643D01*
X5783928Y-14667929D01*
X5755357Y-14682214D01*
X5683928Y-14682214D01*
X5655357Y-14667929D01*
X5641071Y-14653643D01*
X5998214Y-14382214D02*
X6026786Y-14382214D01*
X6055357Y-14396500D01*
X6069643Y-14410786D01*
X6083928Y-14439357D01*
X6098214Y-14496500D01*
X6098214Y-14567929D01*
X6083928Y-14625071D01*
X6069643Y-14653643D01*
X6055357Y-14667929D01*
X6026786Y-14682214D01*
X5998214Y-14682214D01*
X5969643Y-14667929D01*
X5955357Y-14653643D01*
X5941071Y-14625071D01*
X5926786Y-14567929D01*
X5926786Y-14496500D01*
X5941071Y-14439357D01*
X5955357Y-14410786D01*
X5969643Y-14396500D01*
X5998214Y-14382214D01*
X6455357Y-14682214D02*
X6455357Y-14382214D01*
X6583928Y-14682214D02*
X6583928Y-14525071D01*
X6569643Y-14496500D01*
X6541071Y-14482214D01*
X6498214Y-14482214D01*
X6469643Y-14496500D01*
X6455357Y-14510786D01*
X6769643Y-14682214D02*
X6741071Y-14667929D01*
X6726786Y-14653643D01*
X6712500Y-14625071D01*
X6712500Y-14539357D01*
X6726786Y-14510786D01*
X6741071Y-14496500D01*
X6769643Y-14482214D01*
X6812500Y-14482214D01*
X6841071Y-14496500D01*
X6855357Y-14510786D01*
X6869643Y-14539357D01*
X6869643Y-14625071D01*
X6855357Y-14653643D01*
X6841071Y-14667929D01*
X6812500Y-14682214D01*
X6769643Y-14682214D01*
X7041071Y-14682214D02*
X7012500Y-14667929D01*
X6998214Y-14639357D01*
X6998214Y-14382214D01*
X7269643Y-14667929D02*
X7241071Y-14682214D01*
X7183928Y-14682214D01*
X7155357Y-14667929D01*
X7141071Y-14639357D01*
X7141071Y-14525071D01*
X7155357Y-14496500D01*
X7183928Y-14482214D01*
X7241071Y-14482214D01*
X7269643Y-14496500D01*
X7283928Y-14525071D01*
X7283928Y-14553643D01*
X7141071Y-14582214D01*
X7398214Y-14667929D02*
X7426786Y-14682214D01*
X7483928Y-14682214D01*
X7512500Y-14667929D01*
X7526786Y-14639357D01*
X7526786Y-14625071D01*
X7512500Y-14596500D01*
X7483928Y-14582214D01*
X7441071Y-14582214D01*
X7412500Y-14567929D01*
X7398214Y-14539357D01*
X7398214Y-14525071D01*
X7412500Y-14496500D01*
X7441071Y-14482214D01*
X7483928Y-14482214D01*
X7512500Y-14496500D01*
X7626786Y-14796500D02*
X7641071Y-14782214D01*
X7669643Y-14739357D01*
X7683928Y-14710786D01*
X7698214Y-14667929D01*
X7712500Y-14596500D01*
X7712500Y-14539357D01*
X7698214Y-14467929D01*
X7683928Y-14425071D01*
X7669643Y-14396500D01*
X7641071Y-14353643D01*
X7626786Y-14339357D01*
X-112500Y-14887500D02*
X-2500Y-14997500D01*
X-2500Y-14887500D02*
X-112500Y-14997500D01*
X-2500Y-14942500D02*
G75*
G03*
X-2500Y-14942500I-55000J0D01*
G01*
X441071Y-15078214D02*
X269643Y-15078214D01*
X355357Y-15078214D02*
X355357Y-14778214D01*
X326786Y-14821071D01*
X298214Y-14849643D01*
X269643Y-14863929D01*
X569643Y-15049643D02*
X583928Y-15063929D01*
X569643Y-15078214D01*
X555357Y-15063929D01*
X569643Y-15049643D01*
X569643Y-15078214D01*
X869643Y-15078214D02*
X698214Y-15078214D01*
X783928Y-15078214D02*
X783928Y-14778214D01*
X755357Y-14821071D01*
X726786Y-14849643D01*
X698214Y-14863929D01*
X1055357Y-14778214D02*
X1083928Y-14778214D01*
X1112500Y-14792500D01*
X1126786Y-14806786D01*
X1141071Y-14835357D01*
X1155357Y-14892500D01*
X1155357Y-14963929D01*
X1141071Y-15021071D01*
X1126786Y-15049643D01*
X1112500Y-15063929D01*
X1083928Y-15078214D01*
X1055357Y-15078214D01*
X1026786Y-15063929D01*
X1012500Y-15049643D01*
X998214Y-15021071D01*
X983928Y-14963929D01*
X983928Y-14892500D01*
X998214Y-14835357D01*
X1012500Y-14806786D01*
X1026786Y-14792500D01*
X1055357Y-14778214D01*
X1341071Y-14778214D02*
X1369643Y-14778214D01*
X1398214Y-14792500D01*
X1412500Y-14806786D01*
X1426786Y-14835357D01*
X1441071Y-14892500D01*
X1441071Y-14963929D01*
X1426786Y-15021071D01*
X1412500Y-15049643D01*
X1398214Y-15063929D01*
X1369643Y-15078214D01*
X1341071Y-15078214D01*
X1312500Y-15063929D01*
X1298214Y-15049643D01*
X1283928Y-15021071D01*
X1269643Y-14963929D01*
X1269643Y-14892500D01*
X1283928Y-14835357D01*
X1298214Y-14806786D01*
X1312500Y-14792500D01*
X1341071Y-14778214D01*
X1569643Y-15078214D02*
X1569643Y-14878214D01*
X1569643Y-14906786D02*
X1583928Y-14892500D01*
X1612500Y-14878214D01*
X1655357Y-14878214D01*
X1683928Y-14892500D01*
X1698214Y-14921071D01*
X1698214Y-15078214D01*
X1698214Y-14921071D02*
X1712500Y-14892500D01*
X1741071Y-14878214D01*
X1783928Y-14878214D01*
X1812500Y-14892500D01*
X1826786Y-14921071D01*
X1826786Y-15078214D01*
X1969643Y-15078214D02*
X1969643Y-14878214D01*
X1969643Y-14906786D02*
X1983928Y-14892500D01*
X2012500Y-14878214D01*
X2055357Y-14878214D01*
X2083928Y-14892500D01*
X2098214Y-14921071D01*
X2098214Y-15078214D01*
X2098214Y-14921071D02*
X2112500Y-14892500D01*
X2141071Y-14878214D01*
X2183928Y-14878214D01*
X2212500Y-14892500D01*
X2226786Y-14921071D01*
X2226786Y-15078214D01*
X2812500Y-14763929D02*
X2555357Y-15149643D01*
X3198214Y-14778214D02*
X3226786Y-14778214D01*
X3255357Y-14792500D01*
X3269643Y-14806786D01*
X3283928Y-14835357D01*
X3298214Y-14892500D01*
X3298214Y-14963929D01*
X3283928Y-15021071D01*
X3269643Y-15049643D01*
X3255357Y-15063929D01*
X3226786Y-15078214D01*
X3198214Y-15078214D01*
X3169643Y-15063929D01*
X3155357Y-15049643D01*
X3141071Y-15021071D01*
X3126786Y-14963929D01*
X3126786Y-14892500D01*
X3141071Y-14835357D01*
X3155357Y-14806786D01*
X3169643Y-14792500D01*
X3198214Y-14778214D01*
X3426786Y-15049643D02*
X3441071Y-15063929D01*
X3426786Y-15078214D01*
X3412500Y-15063929D01*
X3426786Y-15049643D01*
X3426786Y-15078214D01*
X3626786Y-14778214D02*
X3655357Y-14778214D01*
X3683928Y-14792500D01*
X3698214Y-14806786D01*
X3712500Y-14835357D01*
X3726786Y-14892500D01*
X3726786Y-14963929D01*
X3712500Y-15021071D01*
X3698214Y-15049643D01*
X3683928Y-15063929D01*
X3655357Y-15078214D01*
X3626786Y-15078214D01*
X3598214Y-15063929D01*
X3583928Y-15049643D01*
X3569643Y-15021071D01*
X3555357Y-14963929D01*
X3555357Y-14892500D01*
X3569643Y-14835357D01*
X3583928Y-14806786D01*
X3598214Y-14792500D01*
X3626786Y-14778214D01*
X3983928Y-14878214D02*
X3983928Y-15078214D01*
X3912500Y-14763929D02*
X3841071Y-14978214D01*
X4026786Y-14978214D01*
X4112500Y-14778214D02*
X4298214Y-14778214D01*
X4198214Y-14892500D01*
X4241071Y-14892500D01*
X4269643Y-14906786D01*
X4283928Y-14921071D01*
X4298214Y-14949643D01*
X4298214Y-15021071D01*
X4283928Y-15049643D01*
X4269643Y-15063929D01*
X4241071Y-15078214D01*
X4155357Y-15078214D01*
X4126786Y-15063929D01*
X4112500Y-15049643D01*
X4398214Y-14778214D02*
X4583928Y-14778214D01*
X4483928Y-14892500D01*
X4526786Y-14892500D01*
X4555357Y-14906786D01*
X4569643Y-14921071D01*
X4583928Y-14949643D01*
X4583928Y-15021071D01*
X4569643Y-15049643D01*
X4555357Y-15063929D01*
X4526786Y-15078214D01*
X4441071Y-15078214D01*
X4412500Y-15063929D01*
X4398214Y-15049643D01*
X4698214Y-14778214D02*
X4698214Y-14835357D01*
X4812500Y-14778214D02*
X4812500Y-14835357D01*
X5255357Y-15192500D02*
X5241071Y-15178214D01*
X5212500Y-15135357D01*
X5198214Y-15106786D01*
X5183928Y-15063929D01*
X5169643Y-14992500D01*
X5169643Y-14935357D01*
X5183928Y-14863929D01*
X5198214Y-14821071D01*
X5212500Y-14792500D01*
X5241071Y-14749643D01*
X5255357Y-14735357D01*
X5512500Y-14778214D02*
X5369643Y-14778214D01*
X5355357Y-14921071D01*
X5369643Y-14906786D01*
X5398214Y-14892500D01*
X5469643Y-14892500D01*
X5498214Y-14906786D01*
X5512500Y-14921071D01*
X5526786Y-14949643D01*
X5526786Y-15021071D01*
X5512500Y-15049643D01*
X5498214Y-15063929D01*
X5469643Y-15078214D01*
X5398214Y-15078214D01*
X5369643Y-15063929D01*
X5355357Y-15049643D01*
X5669643Y-15078214D02*
X5726786Y-15078214D01*
X5755357Y-15063929D01*
X5769643Y-15049643D01*
X5798214Y-15006786D01*
X5812500Y-14949643D01*
X5812500Y-14835357D01*
X5798214Y-14806786D01*
X5783928Y-14792500D01*
X5755357Y-14778214D01*
X5698214Y-14778214D01*
X5669643Y-14792500D01*
X5655357Y-14806786D01*
X5641071Y-14835357D01*
X5641071Y-14906786D01*
X5655357Y-14935357D01*
X5669643Y-14949643D01*
X5698214Y-14963929D01*
X5755357Y-14963929D01*
X5783928Y-14949643D01*
X5798214Y-14935357D01*
X5812500Y-14906786D01*
X6169643Y-15078214D02*
X6169643Y-14778214D01*
X6298214Y-15078214D02*
X6298214Y-14921071D01*
X6283928Y-14892500D01*
X6255357Y-14878214D01*
X6212500Y-14878214D01*
X6183928Y-14892500D01*
X6169643Y-14906786D01*
X6483928Y-15078214D02*
X6455357Y-15063929D01*
X6441071Y-15049643D01*
X6426786Y-15021071D01*
X6426786Y-14935357D01*
X6441071Y-14906786D01*
X6455357Y-14892500D01*
X6483928Y-14878214D01*
X6526786Y-14878214D01*
X6555357Y-14892500D01*
X6569643Y-14906786D01*
X6583928Y-14935357D01*
X6583928Y-15021071D01*
X6569643Y-15049643D01*
X6555357Y-15063929D01*
X6526786Y-15078214D01*
X6483928Y-15078214D01*
X6755357Y-15078214D02*
X6726786Y-15063929D01*
X6712500Y-15035357D01*
X6712500Y-14778214D01*
X6983928Y-15063929D02*
X6955357Y-15078214D01*
X6898214Y-15078214D01*
X6869643Y-15063929D01*
X6855357Y-15035357D01*
X6855357Y-14921071D01*
X6869643Y-14892500D01*
X6898214Y-14878214D01*
X6955357Y-14878214D01*
X6983928Y-14892500D01*
X6998214Y-14921071D01*
X6998214Y-14949643D01*
X6855357Y-14978214D01*
X7112500Y-15063929D02*
X7141071Y-15078214D01*
X7198214Y-15078214D01*
X7226786Y-15063929D01*
X7241071Y-15035357D01*
X7241071Y-15021071D01*
X7226786Y-14992500D01*
X7198214Y-14978214D01*
X7155357Y-14978214D01*
X7126786Y-14963929D01*
X7112500Y-14935357D01*
X7112500Y-14921071D01*
X7126786Y-14892500D01*
X7155357Y-14878214D01*
X7198214Y-14878214D01*
X7226786Y-14892500D01*
X7598214Y-14963929D02*
X7826786Y-14963929D01*
X7712500Y-15078214D02*
X7712500Y-14849643D01*
X8326786Y-14878214D02*
X8326786Y-15078214D01*
X8255357Y-14763929D02*
X8183928Y-14978214D01*
X8369643Y-14978214D01*
X8698214Y-15063929D02*
X8726786Y-15078214D01*
X8783928Y-15078214D01*
X8812500Y-15063929D01*
X8826786Y-15035357D01*
X8826786Y-15021071D01*
X8812500Y-14992500D01*
X8783928Y-14978214D01*
X8741071Y-14978214D01*
X8712500Y-14963929D01*
X8698214Y-14935357D01*
X8698214Y-14921071D01*
X8712500Y-14892500D01*
X8741071Y-14878214D01*
X8783928Y-14878214D01*
X8812500Y-14892500D01*
X8998214Y-15078214D02*
X8969643Y-15063929D01*
X8955357Y-15035357D01*
X8955357Y-14778214D01*
X9155357Y-15078214D02*
X9126786Y-15063929D01*
X9112500Y-15049643D01*
X9098214Y-15021071D01*
X9098214Y-14935357D01*
X9112500Y-14906786D01*
X9126786Y-14892500D01*
X9155357Y-14878214D01*
X9198214Y-14878214D01*
X9226786Y-14892500D01*
X9241071Y-14906786D01*
X9255357Y-14935357D01*
X9255357Y-15021071D01*
X9241071Y-15049643D01*
X9226786Y-15063929D01*
X9198214Y-15078214D01*
X9155357Y-15078214D01*
X9341071Y-14878214D02*
X9455357Y-14878214D01*
X9383928Y-14778214D02*
X9383928Y-15035357D01*
X9398214Y-15063929D01*
X9426786Y-15078214D01*
X9455357Y-15078214D01*
X9541071Y-15063929D02*
X9569643Y-15078214D01*
X9626786Y-15078214D01*
X9655357Y-15063929D01*
X9669643Y-15035357D01*
X9669643Y-15021071D01*
X9655357Y-14992500D01*
X9626786Y-14978214D01*
X9583928Y-14978214D01*
X9555357Y-14963929D01*
X9541071Y-14935357D01*
X9541071Y-14921071D01*
X9555357Y-14892500D01*
X9583928Y-14878214D01*
X9626786Y-14878214D01*
X9655357Y-14892500D01*
X9769643Y-15192500D02*
X9783928Y-15178214D01*
X9812500Y-15135357D01*
X9826786Y-15106786D01*
X9841071Y-15063929D01*
X9855357Y-14992500D01*
X9855357Y-14935357D01*
X9841071Y-14863929D01*
X9826786Y-14821071D01*
X9812500Y-14792500D01*
X9783928Y-14749643D01*
X9769643Y-14735357D01*
X-142500Y-15268500D02*
X-2500Y-15408500D01*
X-2500Y-15268500D02*
X-142500Y-15408500D01*
X-72500Y-15268500D02*
X-72500Y-15408500D01*
X-142500Y-15338500D02*
X-2500Y-15338500D01*
X441071Y-15474214D02*
X269643Y-15474214D01*
X355357Y-15474214D02*
X355357Y-15174214D01*
X326786Y-15217071D01*
X298214Y-15245643D01*
X269643Y-15259929D01*
X569643Y-15445643D02*
X583928Y-15459929D01*
X569643Y-15474214D01*
X555357Y-15459929D01*
X569643Y-15445643D01*
X569643Y-15474214D01*
X841071Y-15274214D02*
X841071Y-15474214D01*
X769643Y-15159929D02*
X698214Y-15374214D01*
X883928Y-15374214D01*
X1055357Y-15174214D02*
X1083928Y-15174214D01*
X1112500Y-15188500D01*
X1126786Y-15202786D01*
X1141071Y-15231357D01*
X1155357Y-15288500D01*
X1155357Y-15359929D01*
X1141071Y-15417071D01*
X1126786Y-15445643D01*
X1112500Y-15459929D01*
X1083928Y-15474214D01*
X1055357Y-15474214D01*
X1026786Y-15459929D01*
X1012500Y-15445643D01*
X998214Y-15417071D01*
X983928Y-15359929D01*
X983928Y-15288500D01*
X998214Y-15231357D01*
X1012500Y-15202786D01*
X1026786Y-15188500D01*
X1055357Y-15174214D01*
X1341071Y-15174214D02*
X1369643Y-15174214D01*
X1398214Y-15188500D01*
X1412500Y-15202786D01*
X1426786Y-15231357D01*
X1441071Y-15288500D01*
X1441071Y-15359929D01*
X1426786Y-15417071D01*
X1412500Y-15445643D01*
X1398214Y-15459929D01*
X1369643Y-15474214D01*
X1341071Y-15474214D01*
X1312500Y-15459929D01*
X1298214Y-15445643D01*
X1283928Y-15417071D01*
X1269643Y-15359929D01*
X1269643Y-15288500D01*
X1283928Y-15231357D01*
X1298214Y-15202786D01*
X1312500Y-15188500D01*
X1341071Y-15174214D01*
X1569643Y-15474214D02*
X1569643Y-15274214D01*
X1569643Y-15302786D02*
X1583928Y-15288500D01*
X1612500Y-15274214D01*
X1655357Y-15274214D01*
X1683928Y-15288500D01*
X1698214Y-15317071D01*
X1698214Y-15474214D01*
X1698214Y-15317071D02*
X1712500Y-15288500D01*
X1741071Y-15274214D01*
X1783928Y-15274214D01*
X1812500Y-15288500D01*
X1826786Y-15317071D01*
X1826786Y-15474214D01*
X1969643Y-15474214D02*
X1969643Y-15274214D01*
X1969643Y-15302786D02*
X1983928Y-15288500D01*
X2012500Y-15274214D01*
X2055357Y-15274214D01*
X2083928Y-15288500D01*
X2098214Y-15317071D01*
X2098214Y-15474214D01*
X2098214Y-15317071D02*
X2112500Y-15288500D01*
X2141071Y-15274214D01*
X2183928Y-15274214D01*
X2212500Y-15288500D01*
X2226786Y-15317071D01*
X2226786Y-15474214D01*
X2812500Y-15159929D02*
X2555357Y-15545643D01*
X3198214Y-15174214D02*
X3226786Y-15174214D01*
X3255357Y-15188500D01*
X3269643Y-15202786D01*
X3283928Y-15231357D01*
X3298214Y-15288500D01*
X3298214Y-15359929D01*
X3283928Y-15417071D01*
X3269643Y-15445643D01*
X3255357Y-15459929D01*
X3226786Y-15474214D01*
X3198214Y-15474214D01*
X3169643Y-15459929D01*
X3155357Y-15445643D01*
X3141071Y-15417071D01*
X3126786Y-15359929D01*
X3126786Y-15288500D01*
X3141071Y-15231357D01*
X3155357Y-15202786D01*
X3169643Y-15188500D01*
X3198214Y-15174214D01*
X3426786Y-15445643D02*
X3441071Y-15459929D01*
X3426786Y-15474214D01*
X3412500Y-15459929D01*
X3426786Y-15445643D01*
X3426786Y-15474214D01*
X3626786Y-15174214D02*
X3655357Y-15174214D01*
X3683928Y-15188500D01*
X3698214Y-15202786D01*
X3712500Y-15231357D01*
X3726786Y-15288500D01*
X3726786Y-15359929D01*
X3712500Y-15417071D01*
X3698214Y-15445643D01*
X3683928Y-15459929D01*
X3655357Y-15474214D01*
X3626786Y-15474214D01*
X3598214Y-15459929D01*
X3583928Y-15445643D01*
X3569643Y-15417071D01*
X3555357Y-15359929D01*
X3555357Y-15288500D01*
X3569643Y-15231357D01*
X3583928Y-15202786D01*
X3598214Y-15188500D01*
X3626786Y-15174214D01*
X3998214Y-15174214D02*
X3855357Y-15174214D01*
X3841071Y-15317071D01*
X3855357Y-15302786D01*
X3883928Y-15288500D01*
X3955357Y-15288500D01*
X3983928Y-15302786D01*
X3998214Y-15317071D01*
X4012500Y-15345643D01*
X4012500Y-15417071D01*
X3998214Y-15445643D01*
X3983928Y-15459929D01*
X3955357Y-15474214D01*
X3883928Y-15474214D01*
X3855357Y-15459929D01*
X3841071Y-15445643D01*
X4283928Y-15174214D02*
X4141071Y-15174214D01*
X4126786Y-15317071D01*
X4141071Y-15302786D01*
X4169643Y-15288500D01*
X4241071Y-15288500D01*
X4269643Y-15302786D01*
X4283928Y-15317071D01*
X4298214Y-15345643D01*
X4298214Y-15417071D01*
X4283928Y-15445643D01*
X4269643Y-15459929D01*
X4241071Y-15474214D01*
X4169643Y-15474214D01*
X4141071Y-15459929D01*
X4126786Y-15445643D01*
X4583928Y-15474214D02*
X4412500Y-15474214D01*
X4498214Y-15474214D02*
X4498214Y-15174214D01*
X4469643Y-15217071D01*
X4441071Y-15245643D01*
X4412500Y-15259929D01*
X4698214Y-15174214D02*
X4698214Y-15231357D01*
X4812500Y-15174214D02*
X4812500Y-15231357D01*
X5255357Y-15588500D02*
X5241071Y-15574214D01*
X5212500Y-15531357D01*
X5198214Y-15502786D01*
X5183928Y-15459929D01*
X5169643Y-15388500D01*
X5169643Y-15331357D01*
X5183928Y-15259929D01*
X5198214Y-15217071D01*
X5212500Y-15188500D01*
X5241071Y-15145643D01*
X5255357Y-15131357D01*
X5498214Y-15274214D02*
X5498214Y-15474214D01*
X5426786Y-15159929D02*
X5355357Y-15374214D01*
X5541071Y-15374214D01*
X5883928Y-15474214D02*
X5883928Y-15174214D01*
X6012500Y-15474214D02*
X6012500Y-15317071D01*
X5998214Y-15288500D01*
X5969643Y-15274214D01*
X5926786Y-15274214D01*
X5898214Y-15288500D01*
X5883928Y-15302786D01*
X6198214Y-15474214D02*
X6169643Y-15459929D01*
X6155357Y-15445643D01*
X6141071Y-15417071D01*
X6141071Y-15331357D01*
X6155357Y-15302786D01*
X6169643Y-15288500D01*
X6198214Y-15274214D01*
X6241071Y-15274214D01*
X6269643Y-15288500D01*
X6283928Y-15302786D01*
X6298214Y-15331357D01*
X6298214Y-15417071D01*
X6283928Y-15445643D01*
X6269643Y-15459929D01*
X6241071Y-15474214D01*
X6198214Y-15474214D01*
X6469643Y-15474214D02*
X6441071Y-15459929D01*
X6426786Y-15431357D01*
X6426786Y-15174214D01*
X6698214Y-15459929D02*
X6669643Y-15474214D01*
X6612500Y-15474214D01*
X6583928Y-15459929D01*
X6569643Y-15431357D01*
X6569643Y-15317071D01*
X6583928Y-15288500D01*
X6612500Y-15274214D01*
X6669643Y-15274214D01*
X6698214Y-15288500D01*
X6712500Y-15317071D01*
X6712500Y-15345643D01*
X6569643Y-15374214D01*
X6826786Y-15459929D02*
X6855357Y-15474214D01*
X6912500Y-15474214D01*
X6941071Y-15459929D01*
X6955357Y-15431357D01*
X6955357Y-15417071D01*
X6941071Y-15388500D01*
X6912500Y-15374214D01*
X6869643Y-15374214D01*
X6841071Y-15359929D01*
X6826786Y-15331357D01*
X6826786Y-15317071D01*
X6841071Y-15288500D01*
X6869643Y-15274214D01*
X6912500Y-15274214D01*
X6941071Y-15288500D01*
X7055357Y-15588500D02*
X7069643Y-15574214D01*
X7098214Y-15531357D01*
X7112500Y-15502786D01*
X7126786Y-15459929D01*
X7141071Y-15388500D01*
X7141071Y-15331357D01*
X7126786Y-15259929D01*
X7112500Y-15217071D01*
X7098214Y-15188500D01*
X7069643Y-15145643D01*
X7055357Y-15131357D01*
M02*
